<?xml version="1.0" standalone="no"?>
<!DOCTYPE svg PUBLIC "-//W3C//DTD SVG 20010904//EN"
 "http://www.w3.org/TR/2001/REC-SVG-20010904/DTD/svg10.dtd">
<svg version="1.0" xmlns="http://www.w3.org/2000/svg"
 width="2567.000000pt" height="2567.000000pt" viewBox="0 0 2567.000000 2567.000000"
 preserveAspectRatio="xMidYMid meet">
<metadata>
Created by potrace 1.14, written by Peter Selinger 2001-2017
</metadata>
<g transform="translate(0.000000,2567.000000) scale(0.100000,-0.100000)"
fill="#000000" stroke="none">
<path d="M12215 21512 c-2 -2 -141 -4 -310 -4 -332 -1 -321 1 -347 -58 -7 -16
-16 -30 -19 -30 -4 0 -12 -15 -20 -32 -7 -18 -16 -35 -20 -38 -6 -5 -54 -86
-129 -222 -21 -37 -48 -81 -60 -98 -12 -16 -18 -30 -14 -30 4 0 1 -8 -7 -17
-8 -10 -20 -29 -28 -43 -8 -14 -27 -46 -42 -72 -15 -25 -25 -49 -22 -52 4 -3
2 -6 -4 -6 -6 0 -23 -26 -39 -57 -16 -32 -36 -69 -46 -82 -10 -13 -15 -27 -12
-32 3 -5 1 -9 -5 -9 -5 0 -13 -10 -17 -22 -4 -13 -10 -25 -14 -28 -4 -3 -16
-19 -26 -37 -49 -84 -151 -260 -164 -284 -8 -15 -30 -53 -47 -83 -18 -31 -33
-60 -33 -66 0 -5 -4 -10 -8 -10 -4 0 -18 -21 -31 -47 -12 -27 -37 -71 -54 -98
-54 -85 -55 -86 -169 -290 -25 -44 -62 -109 -83 -145 -21 -36 -55 -97 -75
-135 -21 -39 -50 -88 -64 -110 -15 -21 -24 -45 -21 -52 3 -8 0 -11 -6 -8 -5 4
-15 -7 -22 -24 -6 -17 -15 -31 -19 -31 -4 0 -8 -4 -8 -9 0 -7 -10 -26 -65
-120 -5 -9 -37 -64 -70 -121 -32 -58 -62 -107 -66 -110 -3 -3 -21 -34 -40 -70
-18 -36 -35 -67 -38 -70 -6 -5 -15 -20 -64 -110 -13 -25 -41 -74 -62 -110
-135 -231 -185 -320 -185 -330 0 -5 -3 -10 -8 -10 -4 0 -13 -13 -20 -30 -7
-16 -23 -44 -36 -62 -12 -18 -35 -58 -51 -88 -17 -30 -32 -57 -35 -60 -3 -3
-10 -14 -16 -25 -12 -22 -50 -89 -101 -180 -19 -33 -39 -71 -46 -85 -6 -14
-15 -29 -20 -35 -16 -21 -53 -83 -77 -128 -13 -26 -28 -47 -31 -47 -4 0 -10
-13 -14 -30 -4 -16 -10 -30 -14 -30 -4 0 -18 -22 -31 -50 -13 -27 -27 -50 -32
-50 -4 0 -8 -4 -8 -8 0 -8 -60 -119 -90 -167 -10 -16 -28 -48 -40 -70 -32 -62
-87 -159 -98 -171 -5 -6 -29 -49 -53 -95 -24 -46 -47 -86 -50 -89 -3 -3 -14
-21 -25 -40 -10 -19 -22 -37 -25 -40 -3 -3 -9 -12 -12 -20 -4 -8 -22 -42 -41
-75 -19 -33 -44 -78 -56 -100 -12 -22 -47 -81 -77 -132 -29 -51 -53 -95 -53
-99 1 -4 -2 -10 -7 -13 -5 -3 -23 -31 -39 -61 -16 -30 -44 -77 -61 -105 -18
-27 -33 -55 -33 -62 0 -7 -4 -13 -10 -13 -5 0 -10 -4 -10 -8 0 -10 -114 -211
-130 -229 -5 -7 -10 -15 -10 -18 0 -4 -28 -55 -62 -113 -33 -59 -71 -125 -83
-147 -40 -74 -69 -120 -80 -127 -5 -4 -6 -8 -1 -8 5 0 2 -8 -7 -17 -8 -10 -17
-25 -19 -33 -2 -8 -5 -17 -8 -20 -9 -8 -40 -59 -70 -114 -16 -28 -53 -94 -84
-146 -30 -52 -71 -124 -91 -160 -19 -36 -40 -72 -45 -80 -46 -72 -118 -205
-114 -212 3 -4 0 -8 -6 -8 -6 0 -16 -12 -23 -27 -6 -16 -15 -32 -20 -38 -20
-26 -57 -87 -57 -93 0 -5 -20 -40 -44 -80 -25 -40 -42 -72 -39 -72 3 0 -1 -8
-9 -17 -8 -10 -30 -45 -48 -78 -19 -33 -37 -62 -40 -65 -4 -3 -13 -22 -21 -42
-7 -21 -16 -38 -20 -38 -4 0 -21 -28 -39 -62 -18 -35 -44 -81 -59 -103 -15
-22 -34 -56 -44 -75 -10 -19 -22 -42 -27 -50 -5 -8 -33 -55 -61 -105 -28 -49
-59 -101 -67 -115 -9 -14 -17 -27 -17 -30 0 -3 -8 -16 -16 -30 -17 -27 -50
-85 -94 -165 -15 -27 -34 -57 -41 -66 -8 -8 -14 -21 -14 -27 0 -7 -4 -12 -8
-12 -4 0 -16 -22 -27 -50 -11 -27 -23 -50 -26 -50 -4 0 -14 -12 -21 -27 -8
-16 -61 -109 -118 -208 -57 -99 -117 -205 -133 -235 -17 -30 -43 -74 -59 -97
-15 -23 -28 -45 -28 -48 0 -4 -17 -37 -39 -73 -21 -37 -50 -87 -63 -112 -14
-25 -41 -72 -60 -105 -19 -33 -44 -76 -54 -95 -10 -19 -22 -37 -25 -40 -3 -3
-26 -41 -51 -85 -25 -44 -67 -119 -95 -166 -27 -48 -53 -93 -57 -100 -3 -8
-16 -30 -27 -49 -56 -95 -69 -120 -62 -120 4 0 2 -4 -4 -8 -11 -7 -217 -357
-247 -419 -6 -13 -14 -23 -18 -23 -5 0 -8 -6 -8 -14 0 -7 -7 -19 -15 -26 -8
-7 -13 -16 -10 -20 3 -5 1 -11 -5 -15 -5 -3 -17 -23 -27 -43 -9 -20 -20 -39
-24 -42 -4 -3 -20 -30 -36 -60 -17 -30 -60 -107 -96 -171 -37 -64 -67 -122
-67 -128 0 -6 -4 -11 -8 -11 -5 0 -14 -10 -20 -22 -7 -13 -28 -50 -47 -83 -20
-33 -41 -71 -47 -85 -7 -14 -15 -27 -18 -30 -3 -3 -11 -16 -18 -30 -6 -14 -16
-32 -22 -40 -22 -33 -111 -194 -113 -204 -1 -6 -9 -16 -17 -23 -8 -6 -15 -15
-16 -20 0 -9 -29 -60 -61 -108 -12 -19 -19 -36 -15 -39 3 -3 1 -6 -4 -6 -6 0
-16 -16 -24 -35 -8 -19 -17 -35 -21 -35 -4 0 -10 -9 -14 -20 -3 -11 -26 -53
-51 -94 -25 -42 -43 -80 -40 -85 3 -5 -1 -11 -9 -14 -8 -4 -24 -25 -36 -49
-12 -24 -24 -45 -28 -48 -5 -4 -17 -26 -65 -115 -6 -11 -17 -28 -25 -37 -8
-10 -10 -18 -5 -18 5 0 4 -4 -2 -8 -6 -4 -21 -25 -33 -47 -12 -22 -35 -62 -51
-90 -17 -27 -33 -56 -37 -64 -7 -15 -74 -131 -154 -268 -29 -49 -59 -101 -67
-118 -8 -16 -23 -42 -33 -56 -10 -14 -16 -29 -12 -33 3 -3 2 -6 -4 -6 -5 0
-18 -18 -28 -40 -10 -22 -22 -40 -27 -40 -4 0 -8 -5 -8 -11 0 -6 -16 -38 -36
-72 -20 -34 -50 -87 -67 -117 -17 -30 -38 -66 -47 -80 -9 -14 -45 -77 -81
-140 -35 -63 -68 -122 -74 -131 -5 -9 -28 -48 -49 -85 -22 -38 -48 -81 -58
-96 -11 -16 -16 -28 -13 -28 3 0 -3 -13 -14 -29 -12 -16 -52 -85 -91 -153 -38
-67 -73 -127 -77 -133 -4 -5 -21 -35 -37 -65 -16 -30 -42 -74 -58 -97 -16 -24
-26 -43 -22 -43 4 0 0 -8 -8 -17 -8 -10 -32 -49 -53 -88 -21 -38 -77 -135
-124 -215 -130 -223 -172 -300 -167 -309 5 -8 382 -8 3216 4 855 4 1918 7
2362 8 445 1 808 4 808 7 0 3 447 6 993 7 1293 3 1467 4 1467 14 0 5 -4 9 -10
9 -5 0 -10 5 -10 11 0 7 -8 18 -17 26 -11 9 -12 12 -3 7 8 -4 5 3 -7 17 -12
13 -25 37 -29 52 -3 16 -13 31 -20 34 -8 3 -11 9 -8 14 3 5 0 9 -6 9 -6 0 -9
4 -6 9 3 5 -1 14 -9 21 -8 7 -13 16 -10 20 3 4 -2 11 -11 14 -8 3 -13 10 -10
15 4 5 -1 16 -9 24 -8 9 -15 20 -15 26 0 6 -4 11 -10 11 -5 0 -9 3 -8 8 2 11
-24 62 -33 62 -5 0 -6 6 -4 13 3 7 -7 26 -22 42 -16 17 -28 36 -29 43 -2 29
-5 33 -16 26 -7 -4 -10 -4 -6 1 4 4 -3 25 -15 47 -12 22 -29 53 -38 69 -9 15
-20 25 -24 21 -5 -4 -5 1 -2 10 4 11 0 21 -9 26 -9 5 -17 13 -17 18 -1 5 -5 8
-9 7 -5 -2 -7 0 -7 5 1 4 0 10 -1 15 -1 4 -3 10 -5 15 -6 23 -25 62 -30 62 -4
0 -3 -6 1 -12 4 -7 3 -9 -1 -5 -9 7 -15 28 -17 55 -1 6 -4 10 -6 7 -3 -3 -16
18 -30 45 -13 28 -29 50 -34 50 -5 0 -6 5 -3 10 3 6 2 10 -4 10 -5 0 -13 10
-17 23 -3 12 -15 34 -25 48 -10 14 -16 29 -12 33 3 3 1 6 -6 6 -7 0 -9 5 -6
10 3 6 1 10 -4 10 -6 0 -11 6 -11 14 0 8 -7 17 -16 20 -8 3 -12 10 -9 16 3 5
1 10 -5 10 -6 0 -9 4 -6 8 3 5 -12 34 -33 66 -22 32 -47 76 -56 97 -10 21 -22
39 -27 39 -4 0 -8 8 -8 18 0 10 -10 29 -22 42 -13 14 -22 26 -20 27 7 8 1 23
-8 18 -5 -3 -10 -2 -10 2 0 5 -561 7 -1247 6 -687 -1 -1291 -2 -1343 -2 -229
2 -2259 1 -2390 -1 -80 -1 -207 -1 -282 -1 l-138 1 0 37 c0 28 16 63 68 147
38 61 89 147 115 191 25 44 50 85 54 91 4 5 14 21 22 35 33 56 206 357 224
389 10 19 23 40 27 45 4 6 21 35 37 65 67 121 188 326 200 338 7 7 13 17 13
22 0 5 25 53 56 107 31 54 68 119 83 145 14 25 41 73 60 105 19 32 45 78 59
103 13 25 41 74 62 110 166 284 210 362 210 370 0 4 4 10 8 12 15 6 52 80 46
90 -4 6 -3 9 2 5 9 -5 132 202 126 211 -2 3 1 8 7 11 9 6 95 150 142 239 9 18
23 39 29 47 7 8 9 15 4 15 -5 0 -4 4 1 8 14 9 105 166 105 180 0 5 3 12 8 14
7 3 82 125 82 134 0 2 11 22 25 44 14 22 23 40 19 40 -3 0 1 7 9 15 8 8 34 49
58 92 24 43 49 87 56 98 7 11 20 36 30 55 10 19 21 36 26 38 4 2 7 7 7 12 0 4
25 50 55 101 30 51 55 97 55 101 0 4 7 16 15 25 8 10 15 22 14 27 0 5 3 12 8
15 16 11 83 133 78 141 -3 5 -2 10 3 12 10 4 72 101 103 161 13 26 26 47 29
47 3 0 14 20 25 45 11 25 23 45 28 45 4 0 7 5 7 10 0 6 16 36 35 66 19 30 35
61 35 69 0 8 4 15 9 15 5 0 21 23 35 50 14 28 23 50 19 50 -4 0 0 6 9 13 9 6
29 37 45 67 15 30 31 56 36 58 4 2 7 10 7 18 0 8 5 14 10 14 6 0 10 4 10 10 0
5 14 32 30 60 17 28 27 56 24 62 -4 6 -2 8 3 5 11 -7 55 66 47 77 -2 3 -1 4 3
1 3 -3 11 -1 17 4 6 4 21 11 34 14 19 4 28 -2 49 -36 30 -47 84 -140 120 -206
13 -24 36 -62 51 -85 16 -22 36 -60 47 -83 10 -24 21 -43 25 -43 4 0 10 -8 13
-17 4 -10 18 -38 33 -63 42 -72 88 -153 103 -182 8 -15 19 -24 25 -21 6 3 8 3
4 -2 -9 -10 19 -65 33 -65 6 0 8 -4 5 -9 -7 -10 25 -71 37 -71 4 0 7 -7 7 -16
0 -8 13 -35 30 -59 16 -24 34 -54 40 -67 6 -13 20 -39 32 -58 11 -19 34 -60
51 -90 17 -30 38 -66 47 -80 9 -14 32 -54 51 -90 18 -36 38 -70 44 -77 34 -41
35 -43 35 -62 0 -5 6 -16 13 -23 6 -7 23 -33 36 -58 14 -25 49 -85 79 -135 30
-49 55 -96 55 -102 0 -7 3 -13 7 -13 3 0 14 -16 23 -35 9 -19 21 -35 27 -35 5
0 9 -3 8 -7 -4 -12 26 -73 34 -73 5 0 8 -6 8 -14 0 -7 11 -29 24 -49 13 -19
22 -38 18 -41 -3 -3 0 -6 6 -6 7 0 12 -7 12 -15 0 -8 4 -15 9 -15 5 0 12 -11
15 -25 4 -14 11 -25 17 -25 6 0 7 -4 4 -10 -3 -5 -1 -10 4 -10 6 0 11 -6 11
-14 0 -7 7 -19 15 -26 8 -7 12 -16 9 -21 -3 -5 -1 -9 3 -9 5 0 16 -17 26 -37
20 -44 56 -106 66 -113 3 -3 7 -12 9 -20 2 -8 9 -22 16 -30 7 -8 19 -30 27
-47 8 -18 17 -33 21 -33 5 0 8 -7 8 -15 0 -8 5 -15 11 -15 5 0 7 -4 4 -10 -3
-5 -1 -10 5 -10 6 0 8 -4 5 -10 -3 -5 -1 -10 6 -10 7 0 9 -3 6 -6 -4 -4 1 -14
11 -23 9 -9 17 -23 17 -31 0 -8 6 -14 13 -12 8 1 11 -2 7 -8 -3 -5 -1 -10 5
-10 6 0 8 -5 4 -12 -4 -6 1 -17 11 -25 11 -7 15 -13 11 -13 -10 0 34 -73 51
-83 6 -4 9 -15 6 -24 -5 -12 -3 -14 7 -8 9 5 11 4 6 -4 -5 -7 1 -20 14 -31 12
-10 21 -22 21 -27 -1 -17 11 -43 18 -39 4 3 8 -5 8 -16 1 -12 8 -25 14 -29 7
-4 14 -14 15 -23 1 -8 12 -29 23 -45 12 -16 21 -34 21 -40 0 -6 5 -11 11 -11
5 0 8 -4 5 -9 -3 -5 1 -14 9 -21 8 -7 13 -15 10 -19 -2 -4 4 -13 15 -21 10 -7
16 -19 13 -27 -3 -7 2 -13 12 -13 9 0 14 -4 10 -9 -3 -5 -1 -12 5 -16 6 -4 8
-11 5 -16 -4 -5 -1 -9 5 -9 6 0 8 -4 5 -10 -3 -5 -2 -10 3 -10 5 0 15 -13 22
-30 7 -16 17 -30 22 -30 5 0 7 -4 3 -9 -3 -5 1 -16 9 -24 8 -8 12 -17 9 -21
-4 -3 -1 -6 6 -6 7 0 9 -4 6 -10 -3 -5 -1 -10 4 -10 6 0 11 -7 11 -15 0 -9 7
-18 15 -21 8 -4 12 -11 8 -17 -3 -5 2 -16 12 -24 11 -7 15 -13 10 -13 -5 0 0
-7 11 -16 10 -8 12 -13 4 -9 -10 4 -9 2 3 -8 9 -8 17 -22 17 -31 0 -9 5 -16
10 -16 6 0 10 -5 10 -12 0 -6 10 -23 23 -36 12 -14 15 -21 8 -17 -9 5 -6 -4 7
-22 12 -17 19 -33 15 -37 -3 -3 -1 -6 5 -6 6 0 14 -9 17 -20 4 -11 11 -17 17
-14 6 4 8 2 5 -3 -4 -6 3 -23 15 -39 12 -15 24 -37 25 -48 2 -12 8 -22 13 -24
6 -2 10 -8 10 -14 0 -6 12 -27 27 -46 15 -20 21 -32 13 -27 -13 8 28 -55 43
-66 5 -3 8 -9 8 -13 -3 -20 0 -26 9 -21 6 4 10 3 9 -2 -4 -25 2 -43 13 -37 7
5 9 2 6 -8 -4 -8 2 -20 13 -27 11 -6 17 -15 15 -20 -3 -5 4 -20 15 -35 11 -14
17 -26 13 -26 -4 0 1 -7 12 -16 10 -8 12 -12 4 -8 -8 4 -4 -5 9 -19 14 -15 20
-27 15 -27 -5 0 0 -7 10 -15 11 -8 16 -15 12 -15 -4 0 2 -12 13 -26 12 -15 21
-33 21 -40 0 -8 14 -33 30 -56 17 -22 30 -47 30 -55 0 -7 3 -13 8 -13 4 0 16
-19 27 -41 32 -67 39 -79 48 -79 4 0 5 -4 2 -10 -3 -5 -1 -10 4 -10 6 0 11 -5
11 -12 0 -6 10 -23 23 -36 12 -14 16 -22 9 -18 -11 7 -11 4 0 -15 7 -13 19
-29 26 -37 6 -7 12 -19 12 -27 0 -7 4 -15 8 -17 8 -3 29 -38 95 -158 16 -30
33 -60 38 -65 4 -6 21 -35 37 -65 40 -77 55 -102 70 -118 7 -7 10 -18 7 -23
-4 -5 -1 -9 4 -9 6 0 11 -5 11 -12 0 -6 11 -26 26 -45 14 -18 22 -33 19 -33
-4 0 3 -13 14 -29 12 -16 21 -32 21 -36 0 -4 16 -30 36 -57 19 -28 30 -47 22
-42 -7 4 -6 -1 3 -12 9 -10 25 -35 34 -54 10 -19 22 -38 27 -41 5 -3 9 -8 8
-10 -4 -10 21 -59 30 -59 6 0 8 -5 5 -10 -3 -6 1 -13 9 -16 9 -3 14 -10 11
-14 -3 -5 2 -15 10 -24 9 -8 16 -18 15 -21 -1 -21 1 -25 10 -20 6 3 7 -1 4 -9
-3 -9 -2 -16 3 -16 5 0 15 -16 23 -35 8 -19 17 -35 22 -35 4 0 8 -7 8 -15 0
-8 5 -15 11 -15 5 0 7 -4 4 -10 -3 -6 -1 -10 4 -10 6 0 10 -3 9 -8 -4 -13 32
-72 44 -72 6 0 9 -3 5 -6 -8 -9 21 -64 34 -64 6 0 8 -4 4 -9 -3 -5 1 -15 8
-23 14 -13 17 -21 17 -39 0 -5 6 -7 13 -3 6 4 9 4 5 -1 -6 -7 16 -59 32 -75 3
-3 18 -30 35 -62 29 -55 29 -56 47 -36 10 11 15 25 12 29 -3 5 -1 9 4 9 8 0
35 46 36 63 1 4 8 12 16 17 8 5 11 10 7 10 -5 0 -1 7 7 16 9 8 16 22 16 30 0
8 5 14 11 14 5 0 7 5 4 10 -3 6 -2 10 4 10 8 0 24 31 26 51 0 3 8 13 18 23 9
10 17 23 17 30 0 8 7 19 15 26 8 7 12 16 9 21 -3 5 -1 9 5 9 6 0 13 11 17 25
3 14 10 25 15 25 5 0 9 5 9 12 0 6 8 20 18 31 9 11 11 17 4 13 -8 -5 3 14 22
42 20 27 36 57 36 66 0 9 4 16 9 16 5 0 21 25 36 55 14 30 31 55 36 55 6 0 8
4 5 9 -3 5 5 25 18 44 13 19 23 37 21 39 -3 2 7 17 20 32 23 27 27 34 24 52 0
4 3 10 8 13 4 3 15 15 23 25 13 18 13 19 0 12 -8 -4 -3 3 11 16 14 13 23 30
21 37 -3 8 0 11 7 7 7 -5 9 -1 5 8 -3 9 -1 16 6 16 6 0 8 5 5 10 -3 6 -1 10 4
10 6 0 11 9 11 21 0 11 5 17 10 14 6 -3 10 3 10 14 0 11 5 23 12 27 7 5 8 3 3
-6 -5 -9 -4 -11 4 -6 6 4 9 12 5 17 -3 6 1 18 9 27 16 19 31 53 29 65 -1 4 3
7 9 7 5 0 7 5 4 10 -3 6 -2 10 2 10 5 0 17 16 27 35 10 19 23 32 28 28 6 -3 8
3 4 15 -4 13 -1 22 9 26 9 3 13 10 10 16 -3 5 -1 10 5 10 6 0 9 4 5 10 -3 5 3
18 13 28 11 11 24 34 31 53 6 19 22 42 34 52 12 10 16 16 9 12 -7 -3 -3 9 8
27 11 18 24 42 29 53 5 12 16 27 25 34 9 7 16 20 16 27 0 21 36 75 44 67 4 -4
4 0 1 9 -4 11 1 23 14 35 12 9 21 23 21 30 0 6 7 18 15 27 9 8 15 17 14 18 -6
10 14 47 23 42 6 -4 8 -2 4 4 -3 6 1 18 10 26 9 9 17 22 18 29 6 29 19 46 29
40 6 -3 7 -1 3 5 -4 7 6 31 22 54 16 24 41 69 57 101 15 31 32 57 37 57 5 0 7
4 3 9 -3 5 2 16 10 24 8 9 15 20 15 26 0 6 5 11 10 11 6 0 9 6 8 13 -2 6 3 11
10 9 8 -1 11 2 8 7 -8 13 4 42 15 35 5 -3 8 -2 7 3 -4 14 13 53 23 53 6 0 7 5
4 10 -3 6 1 13 9 16 9 3 14 10 11 14 -3 4 4 19 15 33 11 14 20 30 20 37 0 6 5
8 10 5 6 -4 10 -3 9 2 -4 24 3 45 21 63 11 11 17 20 13 20 -3 0 2 9 12 20 10
11 15 20 11 20 -4 0 0 7 8 16 9 8 16 22 16 30 0 8 5 14 10 14 6 0 10 6 10 13
0 7 8 22 18 33 10 11 16 26 14 34 -3 8 -1 11 4 7 5 -5 14 7 20 25 6 18 17 32
24 30 6 -1 9 2 6 7 -4 5 -2 12 4 16 6 4 8 10 5 15 -3 5 0 12 7 17 7 4 27 36
43 70 17 33 34 59 39 55 5 -3 7 2 3 11 -3 10 -2 17 4 17 5 0 14 12 20 27 5 14
23 46 39 70 17 24 30 46 30 48 0 2 13 27 30 55 16 27 26 50 22 50 -4 0 -2 4 4
8 11 8 76 112 70 112 -3 0 15 30 40 68 24 37 44 73 44 80 0 6 4 12 9 12 5 0
14 12 20 28 10 26 45 88 77 138 9 13 13 24 10 24 -4 0 1 9 11 19 10 11 27 37
38 58 11 21 23 40 26 43 4 3 14 21 23 40 23 50 50 94 59 98 4 2 7 9 7 15 0 7
13 32 29 56 17 25 28 48 25 53 -3 4 0 8 5 8 10 0 18 13 65 107 11 21 23 40 27
43 8 7 78 130 85 153 4 9 10 17 15 17 5 0 9 5 9 10 0 13 197 359 218 383 8 9
13 20 9 23 -3 3 2 14 11 25 9 11 16 22 14 25 -2 3 6 14 18 24 12 11 19 24 15
29 -3 6 -2 11 3 11 5 0 18 17 27 38 10 20 26 48 36 61 10 13 17 27 14 31 -3 4
2 11 11 14 8 3 12 10 9 16 -3 5 -1 10 5 10 6 0 9 4 6 8 -4 7 -398 10 -428 4
-5 -1 -8 -8 -8 -16 0 -8 -4 -16 -8 -18 -9 -4 -105 -174 -103 -182 0 -3 -8 -15
-19 -26 -12 -12 -18 -25 -15 -29 2 -5 -2 -11 -10 -15 -8 -3 -15 -10 -15 -15 0
-6 -13 -33 -30 -61 -16 -27 -26 -50 -23 -50 4 0 0 -6 -9 -12 -8 -7 -29 -38
-45 -68 -44 -81 -71 -129 -109 -191 -19 -31 -34 -60 -34 -64 0 -4 -8 -19 -19
-33 -10 -15 -30 -48 -43 -73 -43 -77 -53 -94 -58 -99 -3 -3 -18 -30 -34 -60
-16 -30 -47 -83 -68 -117 -21 -35 -35 -63 -32 -63 3 0 -2 -7 -10 -16 -9 -8
-13 -20 -10 -26 4 -6 2 -8 -4 -4 -6 3 -14 -3 -17 -15 -4 -12 -18 -37 -31 -56
-13 -20 -21 -39 -18 -44 3 -5 1 -9 -5 -9 -6 0 -18 -17 -27 -37 -10 -21 -26
-49 -36 -62 -10 -13 -15 -28 -11 -34 3 -5 1 -7 -5 -3 -6 3 -14 -4 -18 -16 -4
-13 -18 -40 -31 -60 -13 -21 -21 -38 -18 -38 3 0 -4 -9 -15 -20 -11 -11 -20
-25 -20 -31 0 -6 -9 -23 -20 -39 -11 -15 -17 -30 -13 -34 3 -3 1 -6 -5 -6 -7
0 -12 -7 -12 -15 0 -8 -3 -15 -7 -15 -5 0 -17 -18 -27 -40 -10 -22 -26 -47
-36 -57 -9 -10 -15 -24 -12 -31 2 -6 -1 -12 -7 -12 -6 0 -11 -9 -11 -20 0 -11
-3 -20 -8 -20 -8 0 -45 -65 -43 -75 1 -3 -5 -13 -14 -21 -8 -9 -15 -22 -15
-30 0 -8 -4 -12 -10 -9 -5 3 -10 -3 -10 -15 0 -13 -4 -19 -12 -14 -6 4 -8 3
-5 -2 8 -14 -24 -75 -36 -67 -5 3 -7 1 -3 -5 3 -6 -1 -17 -9 -26 -9 -8 -16
-18 -15 -21 1 -21 -1 -25 -10 -20 -5 3 -7 0 -5 -7 3 -8 -4 -23 -15 -35 -11
-12 -20 -29 -20 -38 0 -8 -4 -15 -10 -15 -5 0 -12 -11 -16 -25 -3 -14 -10 -25
-15 -25 -5 0 -8 -4 -7 -9 2 -5 -6 -17 -17 -26 -11 -9 -15 -14 -8 -11 6 4 -5
-22 -25 -58 -20 -35 -41 -61 -47 -58 -5 3 -7 2 -3 -3 8 -9 -40 -105 -53 -105
-5 0 -8 -3 -8 -7 3 -20 -2 -34 -11 -28 -6 3 -7 -1 -4 -9 3 -9 1 -16 -6 -16 -6
0 -9 -4 -6 -8 3 -5 -5 -19 -18 -33 -12 -13 -21 -29 -19 -35 2 -5 -6 -20 -17
-32 -12 -12 -18 -22 -15 -22 3 0 -8 -20 -25 -44 -16 -25 -30 -49 -30 -55 0 -6
-5 -11 -11 -11 -5 0 -8 -4 -5 -9 3 -5 -1 -14 -9 -21 -8 -7 -15 -19 -15 -26 0
-8 -4 -14 -10 -14 -5 0 -10 -8 -10 -18 0 -10 -9 -28 -19 -39 -11 -12 -18 -23
-15 -26 2 -2 -2 -10 -11 -17 -8 -7 -15 -18 -15 -24 0 -7 -8 -21 -18 -32 -10
-10 -18 -23 -19 -27 -1 -17 -44 -87 -54 -87 -5 0 -8 -3 -8 -8 3 -19 -2 -33
-11 -27 -6 4 -7 -1 -3 -11 4 -12 3 -15 -5 -10 -8 5 -10 2 -6 -8 3 -9 1 -16 -5
-16 -6 0 -11 -8 -11 -17 -1 -23 -25 -55 -34 -45 -4 4 -7 3 -6 -3 5 -21 0 -36
-10 -30 -6 3 -7 -1 -4 -9 3 -9 1 -16 -6 -16 -6 0 -8 -4 -5 -10 3 -5 2 -10 -3
-10 -5 0 -21 -22 -34 -50 -14 -27 -29 -46 -33 -42 -5 4 -6 3 -3 -3 9 -15 -10
-57 -23 -50 -6 4 -9 1 -7 -8 2 -9 -6 -23 -17 -32 -11 -9 -15 -14 -9 -11 6 3 2
-12 -8 -34 -11 -22 -22 -40 -25 -40 -2 0 -1 5 3 12 4 7 3 8 -4 4 -7 -4 -12
-16 -12 -27 0 -11 -4 -17 -10 -14 -5 3 -7 0 -4 -8 3 -9 -7 -27 -23 -42 -15
-15 -22 -24 -15 -20 11 6 11 3 0 -14 -7 -12 -17 -21 -21 -21 -5 0 -7 -7 -3
-15 3 -8 1 -15 -4 -15 -6 0 -10 -6 -10 -14 0 -7 -7 -19 -15 -26 -9 -7 -13 -15
-11 -17 3 -3 -4 -14 -14 -26 -11 -11 -17 -24 -14 -28 2 -4 -4 -12 -13 -18 -10
-6 -14 -11 -10 -11 5 0 1 -7 -7 -16 -9 -8 -14 -20 -11 -25 4 -5 1 -9 -4 -9 -6
0 -11 -7 -11 -15 0 -8 -5 -15 -11 -15 -5 0 -7 -4 -4 -10 3 -5 1 -10 -4 -10 -6
0 -11 -6 -11 -13 0 -8 -9 -22 -20 -32 -11 -10 -17 -22 -14 -27 4 -5 -7 -22
-22 -37 -38 -35 -76 -34 -106 4 -12 16 -16 26 -8 21 13 -6 13 -6 0 6 -25 22
-56 62 -42 54 8 -5 2 10 -12 33 -14 22 -26 45 -26 51 0 5 -5 10 -11 10 -5 0
-8 4 -5 9 3 5 0 11 -8 14 -8 3 -21 19 -29 36 -10 20 -11 29 -4 25 7 -4 2 4
-11 18 -12 13 -19 28 -15 31 3 4 2 7 -4 7 -6 0 -16 14 -22 30 -5 17 -15 30
-21 30 -6 0 -8 5 -5 10 3 6 1 10 -5 10 -6 0 -8 4 -5 10 3 5 1 10 -5 10 -6 0
-8 5 -5 10 3 6 2 10 -3 10 -5 0 -15 14 -22 30 -7 17 -17 30 -22 30 -6 0 -8 6
-5 14 3 8 -1 17 -9 20 -8 3 -14 12 -14 21 0 9 -11 28 -25 43 -14 15 -25 33
-25 41 0 8 -11 29 -26 48 -14 18 -22 33 -18 33 4 0 -1 7 -12 16 -10 8 -12 13
-4 9 10 -4 9 -2 -2 8 -10 8 -15 17 -12 20 4 3 -8 23 -24 43 -17 21 -29 41 -26
46 3 4 1 8 -3 8 -5 0 -14 9 -21 21 -9 13 -9 18 -2 14 8 -5 7 0 -1 13 -7 12
-16 19 -19 17 -4 -2 -12 12 -19 31 -7 18 -16 34 -21 34 -4 0 -11 7 -14 16 -4
10 -2 13 7 9 6 -4 2 2 -10 13 -12 11 -20 22 -17 24 2 3 -2 11 -10 17 -8 7 -13
18 -10 26 3 7 0 16 -7 21 -8 5 -10 3 -4 -6 5 -9 4 -11 -3 -6 -7 4 -12 16 -12
27 0 10 -5 19 -11 19 -5 0 -7 5 -4 10 3 6 -1 10 -10 10 -9 0 -15 6 -12 13 2 6
-3 18 -12 25 -13 11 -13 12 -1 6 8 -4 5 4 -8 18 -21 23 -28 40 -31 71 -1 5 -5
6 -10 3 -5 -3 -12 5 -15 19 -4 14 -11 25 -16 25 -6 0 -10 7 -10 15 0 8 -6 25
-12 37 -13 22 -20 32 -45 62 -7 8 -10 23 -6 32 4 11 3 15 -5 10 -6 -3 -14 3
-18 16 -3 12 -14 29 -23 37 -13 12 -13 13 -1 6 8 -5 4 3 -9 18 -14 15 -21 27
-16 27 5 0 0 7 -11 16 -10 8 -12 12 -4 8 11 -6 10 -2 -2 13 -10 11 -18 24 -18
30 0 6 -7 14 -16 17 -8 3 -12 11 -9 16 4 6 -1 19 -12 28 -10 9 -19 24 -21 32
-2 8 -7 17 -10 20 -4 3 -16 16 -27 30 -19 23 -19 24 -1 10 16 -12 15 -8 -5 20
-13 19 -28 38 -34 42 -5 4 -6 8 -1 8 5 0 -1 12 -15 27 -17 20 -19 23 -4 13 13
-10 10 -4 -8 18 -15 19 -24 39 -21 44 4 7 2 8 -4 4 -7 -4 -12 -1 -12 8 0 9 -5
16 -11 16 -5 0 -7 5 -4 10 3 5 1 10 -5 10 -6 0 -8 5 -5 10 3 6 1 10 -6 10 -7
0 -10 3 -6 6 3 4 1 12 -6 20 -30 33 -37 44 -31 44 4 0 -1 10 -12 22 -13 14
-14 19 -4 14 8 -4 4 2 -9 13 -13 12 -20 21 -15 21 4 0 -1 6 -12 14 -10 8 -16
18 -11 22 4 4 -3 19 -15 32 -13 14 -16 22 -8 18 8 -4 7 -1 -4 8 -10 8 -15 20
-10 27 4 7 3 10 -4 5 -6 -3 -13 3 -17 14 -3 11 -10 20 -15 20 -5 0 -6 7 -3 17
4 11 3 14 -6 9 -8 -5 -11 -3 -9 7 2 9 -6 23 -17 32 -11 9 -14 13 -6 9 15 -8
13 -3 -26 55 -12 18 -20 37 -17 42 3 5 0 9 -6 9 -6 0 -15 11 -20 25 -5 14 -14
25 -20 25 -6 0 -8 5 -5 10 3 6 1 10 -5 10 -6 0 -8 5 -5 10 3 6 1 10 -5 10 -6
0 -8 5 -5 10 3 6 -1 13 -9 16 -9 3 -14 10 -11 14 3 5 -7 22 -21 39 -14 17 -22
31 -18 31 4 0 -1 9 -11 20 -10 11 -15 20 -11 20 4 0 0 7 -8 16 -9 8 -14 20
-11 25 4 5 -1 9 -10 9 -9 0 -13 5 -10 10 3 6 1 10 -5 10 -6 0 -9 4 -5 10 3 5
-2 18 -12 28 -10 10 -19 25 -21 33 -2 8 -11 23 -20 33 -13 15 -14 18 -2 12 8
-4 4 2 -10 14 -14 12 -18 18 -10 14 11 -5 10 -2 -3 13 -9 11 -14 23 -10 26 3
4 1 7 -5 7 -7 0 -12 7 -12 16 0 8 -4 12 -10 9 -9 -5 -12 8 -9 32 0 3 -6 10
-15 15 -9 5 -14 13 -11 19 4 5 1 9 -4 9 -6 0 -11 7 -11 15 0 9 -7 18 -15 21
-8 4 -12 10 -10 15 3 4 -3 17 -13 27 -10 10 -16 24 -14 30 2 7 0 12 -6 12 -8
0 -35 45 -36 62 -1 4 -7 13 -14 20 -6 6 -12 18 -12 25 0 7 -5 13 -11 13 -5 0
-8 4 -5 9 3 5 -1 12 -10 15 -8 3 -13 10 -10 15 4 5 -1 17 -10 25 -8 9 -12 16
-7 16 4 0 -3 10 -17 21 -14 11 -20 18 -13 15 7 -4 6 5 -4 25 -8 17 -21 33 -28
36 -8 2 -11 11 -8 19 3 8 0 14 -6 14 -6 0 -11 7 -11 16 0 8 -4 12 -10 9 -6 -3
-7 1 -4 9 3 9 1 16 -6 16 -6 0 -9 4 -6 9 3 5 -1 14 -9 21 -8 7 -15 19 -15 27
0 8 -5 11 -12 7 -8 -5 -9 -2 -5 9 3 10 3 17 -2 17 -5 0 -12 11 -15 25 -4 14
-11 25 -17 25 -6 0 -8 4 -5 8 3 5 -5 20 -17 33 -12 13 -21 24 -19 24 2 0 0 8
-3 17 -4 10 -11 15 -16 12 -5 -3 -6 2 -3 10 3 9 1 16 -5 16 -6 0 -11 7 -11 15
0 8 -5 15 -11 15 -5 0 -8 4 -5 8 3 5 -6 25 -19 45 -14 20 -25 40 -25 45 0 5
-9 19 -20 32 -11 13 -20 29 -20 37 0 7 -4 13 -10 13 -5 0 -10 7 -10 15 0 8 -5
15 -11 15 -5 0 -8 4 -5 9 3 5 -3 20 -14 34 -11 14 -31 48 -45 76 -15 28 -30
51 -34 51 -5 0 -8 8 -7 18 0 9 -5 16 -12 14 -6 -1 -11 2 -10 6 4 10 -44 106
-54 110 -5 2 -8 10 -8 17 0 8 -8 19 -17 24 -10 6 -15 11 -10 11 7 0 -20 60
-32 70 -3 3 -17 26 -31 53 -13 26 -28 47 -33 47 -4 0 -5 5 -2 10 3 6 1 10 -5
10 -6 0 -8 5 -5 10 3 6 3 10 -2 10 -4 0 -21 28 -38 61 -16 33 -38 69 -48 80
-10 10 -15 19 -12 19 3 0 -6 18 -20 40 -14 22 -25 42 -25 45 0 2 -18 34 -40
70 -22 36 -40 68 -40 70 0 3 -11 23 -25 44 -14 20 -35 56 -48 79 -12 22 -35
65 -51 94 -16 29 -32 55 -37 56 -5 2 -9 8 -9 12 0 5 -59 110 -131 232 -123
210 -151 273 -137 310 3 7 6 17 6 22 0 5 4 12 9 15 6 3 38 56 73 116 34 61 69
120 78 133 8 12 10 22 6 22 -5 0 -4 4 2 8 15 9 115 182 106 182 -4 0 -2 4 3 8
6 4 37 52 69 107 33 55 68 115 78 133 11 17 16 32 11 32 -4 0 -3 4 3 8 6 4 29
39 52 77 22 39 52 89 66 111 14 23 26 47 26 53 0 6 5 11 10 11 6 0 10 5 10 11
0 5 25 52 55 104 30 51 55 99 55 106 0 7 3 10 6 6 9 -8 64 105 57 116 -3 6 -2
7 3 4 10 -6 95 131 131 208 10 22 21 42 24 45 10 9 79 131 79 140 0 4 4 10 9
12 4 2 23 30 41 63 18 33 51 92 73 130 23 39 40 72 38 74 -1 2 1 7 6 10 5 3
31 44 58 91 26 47 65 113 87 147 21 34 38 69 38 77 0 8 4 16 8 18 5 2 23 30
42 63 18 33 40 68 48 78 8 9 11 17 6 17 -5 0 -4 4 2 8 6 4 22 27 34 52 12 25
25 47 29 50 3 3 14 21 23 40 10 19 34 62 53 95 20 33 41 71 48 85 6 14 14 27
18 30 3 3 27 43 53 90 26 47 55 99 64 115 9 17 20 32 25 33 4 2 7 8 7 13 0 5
25 51 55 102 30 50 55 98 55 104 0 7 4 13 8 13 8 0 42 64 41 76 0 4 4 10 9 13
10 6 77 122 282 481 20 36 50 88 66 115 17 28 33 57 37 65 4 8 15 27 25 42 9
15 48 82 87 150 38 68 80 141 93 163 12 22 25 48 29 58 3 9 8 17 12 17 4 0 15
17 26 38 10 20 38 70 62 109 24 40 43 75 43 78 0 3 5 11 10 18 11 13 72 118
142 247 23 41 44 77 47 80 3 3 15 23 26 45 22 43 58 103 75 123 6 7 8 17 5 22
-3 6 -1 10 5 10 6 0 19 17 28 38 9 21 31 60 48 87 50 81 100 167 126 215 14
25 53 95 88 155 35 61 76 135 93 165 16 30 41 72 54 92 14 21 22 42 17 49 -4
7 -3 10 3 6 6 -4 19 9 28 30 10 20 41 72 69 117 50 77 66 108 65 122 0 4 3 10
8 13 15 10 113 181 113 196 0 8 4 15 8 15 5 0 17 17 28 38 41 75 117 208 136
235 10 15 16 31 14 36 -3 5 1 12 10 15 8 3 12 10 9 16 -3 5 -2 10 4 10 5 0 13
9 16 20 3 11 12 26 18 33 7 7 19 26 28 42 44 84 65 120 70 125 3 3 19 28 34
55 15 28 41 73 57 100 72 127 109 194 106 197 -2 2 6 13 17 25 11 12 32 45 45
72 14 28 29 51 33 51 5 0 5 5 2 10 -3 6 -3 10 2 10 4 0 24 31 43 68 19 37 40
73 47 80 6 6 15 22 19 35 3 12 13 30 21 39 8 9 12 22 8 27 -3 6 -1 11 4 11 6
0 11 4 11 10 0 9 -1066 11 -1075 2z"/>
<path d="M13592 21284 c-7 -8 -12 -17 -12 -21 0 -5 -6 -15 -14 -25 -8 -9 -12
-19 -9 -22 4 -3 1 -6 -6 -6 -7 0 -9 -4 -6 -10 3 -5 1 -10 -5 -10 -6 0 -8 -4
-5 -10 3 -5 2 -10 -4 -10 -5 0 -15 -16 -22 -35 -7 -19 -17 -35 -22 -35 -4 0
-13 -13 -18 -30 -6 -16 -15 -30 -21 -30 -6 0 -8 -6 -5 -14 3 -8 3 -16 -1 -18
-10 -4 -60 -90 -60 -102 0 -5 -7 -13 -16 -18 -9 -5 -16 -14 -16 -19 0 -6 -9
-23 -20 -39 -11 -15 -17 -30 -13 -34 3 -3 1 -6 -6 -6 -7 0 -9 -4 -6 -10 3 -5
2 -10 -2 -10 -5 0 -29 -38 -53 -85 -24 -47 -48 -85 -53 -85 -4 0 -6 -4 -2 -9
3 -5 -1 -16 -9 -24 -8 -8 -18 -26 -21 -39 -4 -14 -17 -37 -31 -51 -14 -15 -21
-27 -17 -27 4 0 3 -4 -3 -8 -14 -9 -119 -194 -116 -204 1 -5 -3 -8 -8 -8 -6 0
-10 -6 -10 -14 0 -7 -7 -19 -15 -26 -8 -7 -13 -16 -10 -20 3 -4 -2 -11 -11
-14 -9 -4 -14 -9 -11 -12 3 -3 -4 -20 -16 -39 -36 -55 -61 -100 -59 -107 1 -5
-3 -8 -9 -8 -5 0 -8 -4 -4 -9 3 -6 0 -13 -8 -18 -11 -7 -31 -44 -36 -68 -1 -5
-9 -14 -17 -18 -8 -5 -12 -13 -8 -18 3 -6 -2 -17 -12 -24 -11 -8 -15 -15 -10
-15 6 0 -3 -13 -18 -29 -15 -16 -27 -31 -26 -33 6 -7 -12 -48 -21 -48 -6 0 -7
-4 -4 -10 3 -5 1 -10 -5 -10 -6 0 -8 -4 -5 -10 3 -5 1 -10 -5 -10 -6 0 -9 -4
-6 -9 3 -5 -1 -14 -9 -21 -8 -7 -29 -38 -46 -69 -18 -31 -39 -64 -47 -73 -8
-10 -12 -18 -8 -18 4 0 0 -7 -8 -16 -9 -8 -14 -20 -11 -25 4 -5 3 -9 -2 -9 -8
0 -37 -45 -42 -65 -1 -5 -10 -18 -18 -27 -9 -10 -12 -18 -7 -18 5 0 4 -4 -1
-8 -6 -4 -42 -61 -80 -127 -38 -66 -73 -123 -78 -126 -5 -3 -9 -10 -9 -15 -1
-18 -21 -54 -30 -54 -5 0 -7 -4 -4 -9 3 -5 -1 -14 -9 -21 -8 -7 -12 -16 -9
-21 3 -5 1 -9 -4 -9 -5 0 -12 -8 -16 -17 -10 -30 -68 -128 -80 -135 -6 -4 -8
-8 -4 -8 4 0 -13 -32 -38 -72 -24 -40 -44 -78 -44 -84 0 -7 -4 -14 -9 -16 -5
-1 -25 -33 -44 -70 -19 -36 -38 -64 -41 -61 -3 4 -6 -3 -6 -14 0 -11 -7 -26
-15 -33 -8 -6 -17 -21 -21 -33 -4 -12 -13 -27 -20 -35 -8 -7 -12 -18 -9 -23 4
-5 2 -9 -3 -9 -5 0 -17 -18 -28 -40 -10 -22 -23 -40 -27 -40 -5 0 -5 -4 -2
-10 3 -5 1 -10 -4 -10 -6 0 -11 -7 -11 -15 0 -8 -5 -15 -11 -15 -5 0 -8 -4 -5
-9 3 -5 -1 -14 -9 -21 -8 -7 -12 -16 -9 -21 3 -5 1 -9 -5 -9 -6 0 -13 -11 -17
-25 -3 -14 -9 -25 -13 -25 -4 0 -13 -12 -20 -27 -7 -16 -20 -39 -29 -53 -9
-14 -17 -31 -18 -39 -2 -8 -7 -17 -13 -20 -5 -4 -15 -18 -20 -31 -13 -29 -31
-59 -49 -78 -7 -7 -10 -17 -7 -22 3 -5 1 -10 -3 -12 -5 -1 -15 -15 -23 -29
-46 -86 -63 -114 -75 -127 -8 -7 -12 -18 -9 -23 4 -5 1 -9 -5 -9 -6 0 -8 -4
-5 -10 3 -5 1 -10 -5 -10 -6 0 -8 -4 -5 -10 3 -5 2 -10 -3 -10 -4 0 -17 -17
-29 -37 -47 -88 -59 -107 -73 -125 -8 -10 -15 -22 -16 -26 -2 -16 -19 -48 -36
-66 -9 -10 -15 -22 -13 -26 3 -5 -2 -11 -11 -14 -8 -3 -12 -10 -9 -16 3 -6 0
-13 -9 -16 -8 -3 -13 -11 -10 -18 2 -6 -4 -21 -15 -33 -11 -11 -17 -24 -14
-27 4 -3 2 -6 -4 -6 -6 0 -20 -21 -32 -47 -12 -27 -37 -73 -57 -103 -19 -30
-39 -65 -44 -77 -5 -13 -14 -23 -20 -23 -6 0 -9 -4 -6 -8 3 -5 -6 -25 -20 -45
-14 -20 -21 -37 -17 -37 4 0 -2 -7 -13 -16 -10 -8 -14 -13 -7 -9 7 3 -3 -17
-22 -46 -19 -28 -35 -58 -35 -66 0 -8 -4 -12 -8 -9 -5 3 -14 -11 -21 -30 -7
-18 -16 -34 -21 -34 -5 0 -11 -14 -15 -31 -4 -17 -10 -28 -13 -25 -6 7 -36
-53 -34 -66 1 -5 -2 -8 -7 -8 -5 0 -14 -14 -21 -31 -7 -17 -20 -37 -27 -45 -8
-8 -16 -20 -17 -28 -1 -7 -10 -26 -21 -42 -11 -16 -18 -32 -17 -36 1 -5 -3 -8
-9 -8 -5 0 -7 -4 -4 -10 3 -5 1 -10 -4 -10 -6 0 -19 -18 -28 -40 -10 -22 -21
-40 -26 -40 -4 0 -5 -4 -2 -10 3 -5 1 -10 -5 -10 -6 0 -8 -4 -5 -10 3 -5 1
-10 -5 -10 -6 0 -8 -4 -5 -10 3 -5 1 -10 -5 -10 -6 0 -15 -12 -20 -26 -6 -15
-20 -40 -31 -55 -11 -16 -17 -29 -12 -29 4 0 3 -4 -3 -8 -6 -4 -34 -50 -64
-102 -30 -52 -58 -98 -63 -101 -5 -3 -7 -9 -5 -12 1 -4 -5 -16 -15 -28 -10
-11 -16 -23 -13 -26 2 -3 -4 -14 -14 -26 -11 -11 -17 -24 -14 -29 3 -4 1 -8
-5 -8 -6 0 -13 -11 -17 -25 -3 -14 -10 -23 -14 -20 -7 5 -23 -32 -21 -47 1 -5
-4 -8 -9 -8 -6 0 -10 -7 -10 -15 0 -8 -5 -15 -12 -15 -6 0 -8 -3 -5 -7 4 -3 0
-15 -10 -25 -9 -10 -13 -18 -9 -18 4 0 -2 -10 -13 -22 -11 -11 -18 -25 -15
-30 3 -4 0 -8 -5 -8 -6 0 -11 -7 -11 -15 0 -8 -5 -15 -11 -15 -5 0 -7 -4 -4
-10 3 -5 1 -10 -6 -10 -7 0 -10 -3 -6 -6 3 -3 1 -11 -4 -18 -22 -26 -76 -125
-71 -130 3 -3 1 -6 -4 -6 -5 0 -18 -17 -29 -37 -11 -21 -22 -40 -26 -43 -7 -6
-22 -45 -17 -46 2 0 -4 -8 -12 -17 -25 -27 -35 -42 -38 -57 -2 -8 -7 -17 -11
-20 -9 -7 -35 -63 -33 -72 1 -5 -2 -8 -7 -8 -4 0 -22 -26 -40 -57 -34 -63 -47
-84 -74 -125 -10 -16 -15 -28 -11 -28 4 0 -1 -9 -11 -20 -10 -11 -14 -20 -9
-20 5 0 2 -6 -6 -13 -8 -7 -22 -25 -30 -42 -8 -16 -19 -33 -25 -37 -5 -4 -6
-8 -2 -8 5 0 1 -7 -7 -16 -9 -8 -14 -19 -11 -24 3 -4 -2 -10 -10 -14 -8 -3
-15 -12 -15 -21 0 -8 -5 -15 -11 -15 -5 0 -8 -4 -5 -8 3 -5 -4 -18 -14 -30
-11 -12 -20 -26 -20 -32 0 -6 -7 -18 -15 -27 -8 -8 -13 -19 -10 -24 4 -5 2 -9
-3 -9 -5 0 -21 -24 -36 -52 -27 -54 -37 -72 -68 -118 -9 -14 -31 -53 -49 -85
-17 -33 -39 -68 -47 -77 -8 -10 -12 -18 -7 -18 4 0 1 -7 -6 -16 -15 -18 -24
-33 -58 -95 -13 -24 -23 -46 -22 -48 2 -2 -1 -7 -6 -10 -5 -3 -23 -31 -38 -61
-16 -30 -37 -66 -47 -79 -10 -13 -18 -27 -18 -31 0 -11 318 -16 492 -7 48 2
86 1 84 -2 -2 -3 219 -5 492 -3 274 1 518 2 543 2 42 0 47 3 65 35 10 19 22
35 26 35 5 0 7 3 7 8 -3 20 2 33 11 27 6 -4 9 -3 8 2 -4 11 32 82 50 101 6 7
12 20 12 28 0 8 4 13 9 10 5 -3 11 4 15 17 8 32 77 147 88 147 5 0 6 4 3 10
-3 5 7 30 24 54 17 24 27 46 24 50 -4 3 -1 6 5 6 7 0 12 7 12 15 0 8 5 15 11
15 5 0 7 5 4 10 -3 6 -1 10 5 10 6 0 9 4 6 9 -3 5 1 12 10 15 8 3 13 10 9 15
-3 5 -1 12 5 16 6 3 20 25 31 48 12 23 26 45 31 48 5 3 9 8 8 10 -4 9 24 59
32 59 5 0 6 5 3 10 -3 6 -1 10 5 10 6 0 8 5 5 10 -3 6 -2 10 4 10 6 0 13 11
17 25 3 14 10 25 16 25 5 0 6 5 3 10 -3 6 -1 10 5 10 6 0 8 5 5 10 -3 6 -2 10
4 10 5 0 13 10 17 22 4 13 14 29 23 36 12 10 12 12 1 6 -8 -5 -3 7 13 25 15
18 30 43 33 57 3 13 10 24 15 24 5 0 9 7 9 15 0 8 10 24 23 36 12 12 16 19 10
15 -8 -4 -6 5 4 23 10 16 21 27 25 25 4 -3 5 1 3 8 -3 8 3 23 14 35 11 11 17
24 14 27 -4 3 -1 6 5 6 7 0 11 6 9 13 -1 6 3 11 10 10 7 -2 10 4 7 12 -3 7 3
22 15 31 11 10 18 21 15 26 -3 4 0 8 7 8 7 0 9 3 6 6 -4 4 2 19 13 34 11 16
20 33 20 39 0 6 5 11 10 11 6 0 10 9 10 20 0 11 4 20 9 20 5 0 14 12 20 28 16
37 44 86 54 90 4 2 7 10 7 18 0 8 5 14 11 14 5 0 7 5 4 10 -3 6 -1 10 4 10 6
0 11 6 11 14 0 8 7 22 16 30 8 9 12 16 8 16 -4 0 1 7 12 15 10 8 15 15 11 15
-5 0 0 12 11 28 11 15 23 37 26 50 4 12 12 20 17 17 5 -3 6 1 3 9 -3 9 -2 16
3 16 6 0 18 18 28 40 10 22 22 40 27 40 4 0 7 3 6 8 -2 4 8 25 21 47 14 22 24
43 23 48 -1 4 3 7 8 7 6 0 10 7 10 15 0 8 5 15 11 15 5 0 7 5 4 10 -3 6 -1 10
4 10 6 0 11 8 11 19 0 10 10 26 23 35 12 9 15 14 7 10 -8 -4 -5 4 8 18 12 13
19 28 15 31 -3 4 -1 7 5 7 7 0 12 3 11 8 -2 12 13 52 20 52 3 0 17 21 31 48
14 26 29 52 35 58 5 6 28 45 50 87 21 41 43 73 49 70 5 -3 6 -1 2 6 -4 6 2 23
13 37 12 15 21 33 21 40 0 8 5 14 12 14 6 0 9 3 5 6 -3 3 3 15 13 27 11 11 17
23 15 27 -2 4 5 17 16 28 10 12 19 24 19 27 1 9 13 40 19 45 4 3 15 22 26 42
10 20 22 35 25 33 3 -2 7 6 7 17 1 12 6 24 10 27 12 9 32 42 44 73 6 16 14 26
18 24 4 -3 7 4 8 14 1 10 15 37 32 61 17 23 31 48 31 56 0 7 5 13 10 13 6 0
10 9 10 19 0 10 7 22 16 25 8 3 13 10 10 14 -3 5 4 19 15 30 10 12 19 23 19
24 -4 10 22 58 28 54 4 -2 9 5 9 17 1 12 7 23 13 25 5 2 8 8 4 13 -3 5 0 9 5
9 6 0 11 7 11 15 0 8 3 15 8 15 4 0 12 10 17 23 24 51 61 113 75 125 8 8 9 11
2 7 -7 -3 1 14 18 38 16 25 30 49 30 55 0 6 3 12 8 14 4 2 16 21 27 43 11 22
26 46 32 53 7 7 13 20 13 28 0 8 5 14 11 14 5 0 8 4 4 10 -3 5 3 18 15 30 11
11 17 20 13 20 -3 0 1 8 9 18 8 9 23 36 33 59 10 23 21 40 24 38 4 -2 15 17
26 41 11 24 23 44 27 44 5 0 8 9 8 19 0 10 7 22 16 25 8 3 13 10 10 15 -3 5 1
14 9 21 8 7 15 19 15 26 0 8 4 14 10 14 5 0 10 3 9 8 -2 13 13 52 20 52 4 0
13 16 21 35 7 19 17 32 22 29 4 -3 8 4 8 15 0 12 9 30 20 41 11 11 20 22 20
25 1 14 35 75 42 75 5 0 6 5 3 10 -3 6 -2 10 3 10 5 0 19 23 31 50 12 28 27
50 33 50 6 0 8 3 5 7 -12 11 27 32 62 33 25 0 40 -7 57 -27 13 -16 24 -33 24
-40 0 -6 5 -13 10 -15 6 -2 12 -13 13 -25 0 -12 4 -21 7 -20 3 1 6 -2 7 -7 1
-5 5 -12 10 -15 17 -11 55 -72 50 -78 -4 -3 1 -12 9 -20 8 -8 11 -19 8 -25 -5
-7 -2 -8 6 -3 10 6 12 4 7 -9 -4 -10 -3 -15 3 -11 11 7 32 -29 23 -39 -3 -3 0
-6 7 -6 7 0 11 -3 7 -6 -3 -4 1 -13 9 -21 8 -8 11 -19 8 -25 -4 -7 -2 -8 4 -4
7 4 12 2 12 -3 0 -17 3 -25 17 -41 7 -8 14 -19 15 -25 2 -5 8 -17 15 -25 7 -8
12 -18 11 -21 -2 -3 5 -13 15 -23 9 -10 15 -22 12 -27 -4 -5 -1 -9 4 -9 6 0
11 -7 11 -15 0 -8 5 -15 11 -15 5 0 7 -4 4 -10 -3 -5 -2 -10 2 -10 5 0 17 -17
28 -37 11 -21 29 -53 42 -72 12 -19 19 -39 16 -44 -3 -6 -1 -7 4 -4 13 8 26
-20 16 -35 -3 -7 -1 -8 5 -4 11 6 14 1 11 -20 0 -3 8 -12 18 -20 10 -7 14 -14
8 -14 -5 0 -5 -4 2 -8 6 -4 13 -14 15 -22 2 -8 9 -21 16 -28 7 -8 9 -18 6 -24
-4 -6 -3 -8 3 -5 5 4 16 -6 24 -21 7 -15 22 -40 33 -56 13 -20 15 -27 5 -22
-7 4 -4 -2 9 -13 14 -12 20 -25 16 -32 -5 -8 -3 -9 6 -4 8 5 11 3 8 -5 -2 -7
6 -24 18 -37 13 -15 20 -31 17 -40 -4 -10 -2 -14 4 -10 5 3 16 -9 23 -28 8
-19 17 -35 22 -35 4 0 8 -6 8 -12 0 -7 9 -24 20 -38 11 -14 20 -33 20 -43 0
-10 5 -15 10 -12 6 3 10 1 10 -5 0 -7 10 -26 22 -43 13 -18 16 -28 7 -23 -7 4
-6 1 4 -7 9 -8 17 -19 17 -26 0 -6 5 -11 12 -11 6 0 9 -3 5 -6 -3 -4 1 -13 9
-21 8 -8 12 -19 9 -24 -4 -5 -1 -9 4 -9 6 0 11 -9 11 -20 0 -11 7 -23 15 -26
8 -4 12 -10 9 -15 -3 -5 0 -9 6 -9 6 0 18 -17 27 -37 8 -21 28 -57 44 -81 16
-24 24 -40 17 -37 -7 4 -5 0 5 -8 9 -8 17 -19 17 -26 0 -6 4 -11 10 -11 5 0 7
-6 4 -14 -3 -7 2 -16 11 -20 9 -3 13 -10 10 -16 -3 -6 1 -13 9 -16 9 -3 13
-10 10 -15 -3 -5 0 -9 5 -9 6 0 11 -9 11 -21 0 -11 4 -18 9 -15 9 6 35 -44 26
-52 -2 -3 4 -12 16 -20 13 -9 19 -21 16 -33 -3 -10 0 -17 7 -16 6 1 10 -6 8
-17 -2 -10 1 -15 7 -12 5 4 12 -3 16 -14 3 -11 11 -20 17 -20 5 0 8 -6 5 -14
-3 -8 1 -17 9 -20 8 -3 14 -15 14 -26 0 -11 5 -20 12 -20 6 0 8 -3 5 -7 -4 -3
1 -12 11 -20 10 -8 11 -11 2 -7 -8 5 0 -9 18 -31 17 -22 32 -48 32 -57 0 -10
4 -18 9 -18 9 0 24 -38 22 -53 -1 -5 3 -6 8 -3 9 6 21 -14 27 -44 2 -8 8 -16
14 -18 5 -2 8 -8 4 -13 -3 -5 -1 -9 4 -9 5 0 15 -13 22 -30 7 -16 17 -30 22
-30 5 0 6 -4 3 -10 -3 -5 -1 -10 5 -10 7 0 10 -5 8 -12 -2 -6 4 -20 14 -30 10
-10 18 -25 18 -33 0 -8 4 -15 10 -15 5 0 6 -7 3 -17 -4 -10 -2 -14 5 -9 6 4
16 -8 23 -28 7 -19 16 -33 20 -31 7 5 22 -32 20 -47 -1 -5 3 -8 9 -8 5 0 7 -7
3 -15 -3 -10 0 -15 8 -13 8 2 13 -4 13 -14 -1 -10 2 -15 7 -12 5 3 9 -4 9 -15
0 -12 5 -21 11 -21 5 0 7 -4 4 -10 -3 -5 -3 -10 2 -10 4 0 17 -12 27 -27 13
-17 14 -24 5 -19 -8 4 -5 0 5 -8 11 -9 16 -16 11 -16 -5 0 0 -7 11 -16 10 -8
12 -12 4 -8 -10 5 -8 -1 5 -16 12 -14 14 -20 5 -15 -13 8 -13 6 -1 -8 7 -9 18
-14 24 -10 6 3 7 1 3 -5 -4 -7 -3 -12 3 -12 5 0 8 -9 6 -20 -2 -11 0 -18 5
-15 5 3 12 -6 16 -20 3 -14 11 -25 17 -25 6 0 8 -3 4 -6 -3 -4 1 -13 9 -21 8
-8 11 -19 8 -25 -4 -6 -2 -8 4 -4 6 3 13 -3 17 -14 3 -11 10 -20 15 -20 5 0 6
-7 3 -17 -4 -11 -3 -14 5 -9 11 7 16 -7 15 -41 -1 -7 2 -11 6 -9 3 2 16 -12
28 -31 13 -19 18 -31 12 -27 -6 3 6 -16 25 -44 20 -27 36 -54 36 -61 0 -6 5
-11 11 -11 6 0 9 -6 6 -14 -3 -8 1 -17 9 -20 8 -3 14 -12 14 -19 0 -8 7 -20
15 -27 9 -7 14 -19 11 -27 -3 -7 1 -13 11 -13 9 0 13 -3 10 -6 -4 -4 2 -19 13
-34 11 -16 20 -33 20 -39 0 -6 5 -11 10 -11 6 0 9 -3 9 -7 -3 -20 2 -34 11
-28 9 5 15 -15 11 -37 0 -5 3 -8 8 -8 5 0 12 -11 15 -25 4 -16 11 -23 18 -19
7 5 9 2 5 -9 -3 -9 -1 -19 5 -23 7 -4 8 -3 4 4 -4 7 -5 12 -2 12 6 0 36 -60
36 -73 0 -5 8 -16 18 -24 10 -8 11 -11 2 -7 -12 7 -13 5 -3 -8 7 -8 9 -19 5
-23 -4 -5 1 -5 11 -2 11 4 16 3 12 -3 -3 -6 -1 -10 5 -10 7 0 10 -7 6 -15 -3
-8 -2 -15 3 -15 9 0 37 -60 33 -72 -1 -5 5 -8 13 -8 8 0 14 -3 13 -7 -3 -13
25 -63 34 -63 5 0 6 -4 3 -10 -3 -5 -1 -10 4 -10 6 0 11 -7 11 -16 0 -9 5 -12
12 -8 8 5 9 2 5 -9 -3 -10 -2 -17 4 -17 6 0 7 -4 4 -10 -3 -5 -2 -10 4 -10 6
0 15 -10 22 -21 9 -17 8 -20 -3 -14 -7 4 -2 -3 12 -15 14 -12 18 -18 10 -14
-12 6 -13 5 -3 -8 7 -8 10 -18 6 -21 -3 -4 2 -7 12 -7 10 0 15 -3 12 -7 -4 -3
1 -12 11 -20 9 -8 11 -12 5 -8 -9 4 -11 1 -7 -9 3 -9 11 -13 17 -9 6 4 8 0 4
-9 -3 -9 2 -23 12 -32 9 -8 23 -31 31 -50 7 -19 18 -32 23 -29 6 4 8 0 5 -9
-4 -8 2 -19 13 -26 10 -7 16 -18 13 -27 -4 -8 1 -17 10 -21 9 -3 13 -10 10
-15 -3 -5 2 -12 10 -15 9 -3 14 -10 11 -14 -3 -5 5 -19 17 -31 13 -12 16 -18
8 -13 -8 4 -3 -8 12 -28 15 -19 24 -38 21 -42 -4 -3 -1 -6 5 -6 7 0 12 -7 12
-15 0 -8 4 -15 8 -15 19 0 86 -154 88 -199 l2 -46 -3653 0 -3653 0 20 -27 c11
-16 16 -28 11 -28 -4 0 -1 -5 7 -10 8 -5 15 -13 15 -19 0 -5 12 -28 28 -51 15
-23 27 -48 27 -56 0 -9 5 -12 10 -9 6 3 10 -1 10 -9 0 -26 2 -31 21 -44 11 -7
19 -21 19 -31 0 -9 8 -26 18 -37 19 -21 46 -75 44 -86 -1 -5 2 -8 7 -8 10 0
27 -39 23 -53 -1 -5 2 -6 7 -3 5 4 13 -4 17 -16 3 -12 13 -28 20 -36 8 -7 12
-17 9 -22 -3 -4 2 -10 10 -14 8 -3 15 -12 15 -21 0 -8 5 -15 11 -15 5 0 7 -4
4 -10 -3 -5 -1 -10 5 -10 6 0 9 -4 5 -9 -3 -6 2 -14 11 -19 9 -5 15 -12 15
-16 -1 -3 5 -19 13 -35 9 -16 12 -32 8 -36 -4 -3 -2 -5 3 -3 6 2 11 -1 12 -6
0 -5 8 -13 17 -18 9 -5 14 -13 11 -19 -4 -5 -1 -9 5 -9 6 0 9 -4 6 -9 -3 -5 4
-20 15 -35 11 -14 17 -31 13 -37 -4 -7 -3 -9 4 -5 6 3 16 -7 24 -24 7 -16 16
-30 20 -30 5 0 8 -9 8 -19 0 -10 7 -22 16 -25 8 -3 13 -10 9 -16 -3 -5 3 -17
14 -27 11 -9 18 -20 16 -24 -3 -4 2 -12 10 -19 8 -7 15 -18 15 -25 0 -7 7 -18
15 -25 8 -6 14 -15 13 -18 -2 -18 3 -35 8 -29 4 3 20 -22 37 -56 17 -34 37
-66 44 -70 8 -5 11 -12 8 -16 -2 -5 2 -14 10 -21 7 -6 11 -19 8 -27 -4 -11 -2
-14 5 -9 7 4 12 3 12 -2 0 -5 11 -26 25 -46 13 -20 22 -36 18 -36 -3 0 1 -8
10 -18 10 -10 14 -22 10 -25 -3 -4 -2 -7 4 -7 6 0 17 -15 24 -32 7 -18 20 -41
29 -51 8 -10 15 -21 16 -25 1 -16 28 -62 36 -62 4 0 8 -5 8 -10 0 -6 11 -28
25 -50 14 -22 22 -40 18 -40 -5 0 -1 -5 7 -10 8 -5 15 -14 15 -20 0 -6 6 -14
13 -19 8 -5 14 -12 14 -17 1 -16 21 -54 29 -54 4 0 10 -11 13 -25 4 -14 11
-25 17 -25 6 0 7 -4 4 -10 -3 -5 -1 -10 5 -10 6 0 9 -4 5 -9 -3 -5 -1 -12 5
-16 6 -4 8 -10 5 -15 -3 -4 2 -10 10 -14 8 -3 15 -12 15 -21 0 -8 5 -15 10
-15 6 0 10 -7 10 -16 0 -8 6 -22 13 -29 29 -33 37 -45 32 -45 -4 0 3 -13 14
-29 12 -16 21 -34 21 -40 0 -6 5 -11 11 -11 5 0 7 -4 4 -10 -3 -5 -1 -10 4
-10 6 0 11 -4 11 -9 0 -4 25 -51 55 -104 30 -52 55 -99 55 -103 0 -4 8 -13 18
-21 9 -8 11 -11 3 -7 -8 4 -3 -8 12 -28 15 -19 27 -40 27 -46 0 -7 5 -12 10
-12 6 0 10 -7 10 -15 0 -8 5 -15 11 -15 5 0 8 -4 4 -9 -3 -5 1 -15 8 -23 7 -7
22 -33 34 -58 12 -25 30 -54 40 -65 11 -11 20 -23 21 -27 12 -36 30 -67 35
-61 4 3 7 -2 7 -13 0 -10 9 -30 20 -44 11 -14 20 -30 20 -37 0 -6 3 -13 8 -15
10 -4 55 -88 47 -88 -4 0 3 -9 16 -20 13 -10 20 -19 16 -20 -5 0 -1 -7 7 -16
9 -8 14 -20 11 -25 -4 -5 -3 -9 2 -9 8 0 46 -58 47 -72 1 -4 7 -13 14 -20 6
-6 12 -18 12 -25 0 -7 5 -13 12 -13 6 0 9 -3 6 -6 -5 -5 25 -58 50 -89 4 -5 9
-13 10 -18 3 -18 46 -87 54 -87 5 0 7 -4 4 -9 -4 -5 6 -24 21 -42 16 -18 21
-29 13 -24 -11 6 -10 3 3 -12 9 -11 17 -25 17 -31 0 -6 11 -24 25 -40 13 -16
22 -32 18 -36 -3 -3 -1 -6 6 -6 7 0 10 -4 7 -9 -3 -5 7 -21 22 -37 15 -15 20
-24 12 -19 -11 6 -10 3 3 -12 9 -11 17 -25 17 -31 0 -7 5 -12 11 -12 5 0 7 -5
4 -10 -3 -6 1 -13 9 -16 9 -3 16 -12 16 -20 0 -7 14 -35 30 -61 17 -26 30 -53
30 -60 0 -7 4 -13 9 -13 5 0 11 -10 15 -23 3 -12 17 -34 31 -50 14 -15 23 -27
20 -27 -8 0 35 -72 48 -81 5 -3 8 -10 8 -15 -1 -5 15 -36 34 -68 19 -32 35
-63 35 -67 0 -5 3 -9 8 -9 4 0 13 -15 21 -32 8 -18 17 -35 21 -38 3 -3 14 -22
23 -42 10 -21 22 -38 28 -38 6 0 8 -4 4 -9 -3 -5 2 -17 11 -25 8 -9 13 -16 9
-16 -6 0 1 -13 36 -65 10 -16 25 -42 31 -57 7 -16 16 -28 21 -28 4 0 5 -4 2
-10 -3 -5 -1 -10 5 -10 6 0 8 -4 5 -10 -3 -5 -3 -10 2 -10 4 0 13 -10 19 -23
29 -59 58 -107 66 -107 4 0 5 -7 2 -15 -4 -8 -2 -15 4 -15 10 0 38 -60 34 -72
-1 -5 2 -8 7 -8 6 0 22 -23 37 -50 15 -27 32 -50 37 -50 6 0 8 -3 4 -6 -7 -7
20 -64 30 -64 3 0 3 3 0 6 -4 4 2 19 13 34 11 15 17 29 14 32 -2 3 2 11 11 18
8 7 15 17 15 22 0 6 10 24 22 41 12 17 16 27 7 22 -7 -5 -3 3 11 18 14 14 26
31 26 36 1 6 2 18 3 27 0 8 6 12 11 9 6 -3 10 1 10 9 0 9 3 16 8 16 4 0 16 19
27 43 11 23 24 45 30 49 12 9 -31 93 -103 204 -7 10 -19 34 -27 52 -9 17 -20
32 -25 32 -6 0 -10 8 -10 19 0 10 -7 24 -15 31 -9 7 -13 15 -11 18 3 2 0 10
-7 18 -22 25 -32 40 -35 54 -2 8 -7 17 -11 20 -3 3 -12 16 -18 30 -28 56 -72
132 -89 151 -9 10 -14 19 -9 19 4 0 -5 16 -19 35 -15 19 -24 40 -21 45 3 6 2
10 -3 10 -6 0 -25 26 -42 58 -18 31 -38 60 -44 64 -6 4 -7 8 -2 8 4 0 0 12
-10 28 -10 15 -24 39 -32 54 -7 16 -17 28 -22 28 -5 0 -7 7 -4 15 4 8 1 15 -5
15 -6 0 -11 7 -11 15 0 8 -3 15 -7 15 -5 0 -17 19 -28 43 -11 23 -22 44 -25
47 -3 3 -12 14 -20 24 -13 18 -13 19 0 11 8 -4 2 6 -14 23 -17 18 -26 32 -20
32 5 0 0 7 -10 15 -11 8 -16 15 -11 15 4 0 0 10 -11 22 -12 13 -13 18 -4 13 8
-5 3 6 -12 24 -16 18 -28 39 -28 47 0 8 -7 17 -15 20 -8 4 -15 12 -15 19 0 7
-17 42 -38 76 -21 35 -49 84 -63 109 -13 25 -29 50 -35 57 -6 6 -17 25 -24 42
-7 17 -17 31 -22 31 -5 0 -7 4 -3 9 3 6 -1 13 -9 18 -8 4 -15 11 -15 16 -1 8
-27 59 -48 92 -7 11 -16 28 -19 38 -3 9 -10 17 -15 17 -5 0 -9 8 -9 18 0 10
-9 28 -19 39 -11 12 -17 24 -14 27 4 3 1 6 -6 6 -7 0 -9 5 -6 10 3 6 2 10 -3
10 -5 0 -16 15 -23 33 -7 17 -21 41 -31 51 -10 11 -18 25 -18 32 0 6 -7 17
-15 24 -9 7 -13 15 -11 18 3 3 -3 17 -14 32 -11 16 -20 33 -20 39 0 6 -4 11
-10 11 -5 0 -10 6 -10 14 0 7 -7 19 -15 26 -8 7 -12 16 -9 21 3 5 -2 12 -10
15 -9 3 -14 9 -11 14 2 4 -5 17 -16 28 -11 12 -17 22 -14 22 8 0 -74 140 -103
175 -9 12 -12 17 -19 45 -3 11 -9 20 -14 20 -4 0 -13 16 -20 35 -7 19 -17 35
-21 35 -4 0 -8 5 -8 10 0 6 -11 27 -23 48 -13 20 -32 51 -43 67 -10 17 -19 33
-19 37 0 4 -8 16 -17 27 -9 11 -14 22 -11 25 4 3 0 6 -7 6 -7 0 -11 3 -7 6 3
4 -6 25 -21 48 -15 22 -36 58 -47 79 -11 20 -23 37 -27 37 -5 0 -7 3 -6 8 3
12 -25 62 -34 62 -5 0 -7 4 -4 8 3 5 -3 18 -14 29 -10 12 -16 24 -13 27 4 3 1
6 -6 6 -7 0 -9 5 -6 10 3 6 1 10 -5 10 -6 0 -8 5 -5 10 3 6 2 10 -3 10 -5 0
-15 14 -22 31 -7 17 -18 36 -24 42 -6 7 -22 33 -35 60 -13 26 -29 47 -34 47
-6 0 -7 3 -4 7 4 3 -5 22 -20 41 -15 20 -21 32 -13 27 11 -7 -25 51 -41 65 -3
3 -11 20 -18 38 -8 17 -17 32 -22 32 -5 0 -8 3 -7 8 3 12 -24 62 -34 62 -4 0
-8 9 -8 20 0 10 -7 23 -16 28 -9 5 -16 13 -16 18 -1 18 -21 54 -30 54 -5 0 -6
5 -3 10 3 6 1 10 -4 10 -6 0 -11 6 -11 13 0 7 -8 22 -17 33 -10 11 -19 26 -21
33 -1 7 -9 20 -17 28 -14 14 -19 28 -16 46 1 5 -3 6 -9 2 -10 -6 -35 41 -31
58 1 5 -3 6 -7 3 -5 -3 -20 15 -33 39 -13 25 -28 45 -32 45 -5 0 -5 5 -2 10 3
6 2 10 -3 10 -5 0 -10 24 -11 53 l-2 53 1631 0 c896 -1 1630 1 1630 4 0 3 793
5 1763 4 969 -1 1762 -2 1762 -4 0 -1 23 -2 51 -4 33 -1 57 -8 68 -19 10 -9
14 -17 9 -17 -4 0 -1 -6 7 -13 15 -12 22 -30 23 -54 0 -7 3 -13 6 -13 3 0 12
-15 20 -32 8 -18 25 -47 38 -64 12 -17 20 -34 16 -37 -3 -4 -1 -7 6 -7 7 0 10
-4 7 -9 -3 -5 1 -14 9 -21 8 -7 15 -19 15 -26 0 -8 5 -14 10 -14 6 0 10 -6 10
-13 0 -7 8 -22 18 -33 9 -11 18 -26 20 -34 2 -8 13 -26 25 -39 12 -14 15 -21
7 -17 -8 4 -6 0 4 -8 11 -9 16 -16 10 -16 -5 0 0 -7 10 -15 11 -8 16 -15 11
-15 -4 0 0 -10 11 -22 13 -14 14 -19 4 -14 -8 4 -4 -2 10 -14 14 -12 19 -19
12 -15 -11 6 -11 3 -1 -13 7 -12 17 -18 23 -15 5 4 7 -1 3 -11 -4 -10 -1 -19
8 -22 8 -4 13 -9 10 -14 -2 -4 5 -17 16 -28 11 -12 17 -22 14 -22 -4 0 3 -13
15 -30 12 -16 18 -30 14 -30 -4 0 1 -7 12 -16 10 -8 13 -12 5 -8 -8 4 -3 -8
12 -28 15 -19 27 -40 27 -46 0 -7 5 -12 11 -12 5 0 7 -4 4 -10 -3 -5 -1 -10 4
-10 6 0 10 -3 9 -7 -4 -14 48 -93 56 -86 4 5 6 3 5 -2 -4 -15 11 -55 22 -55 5
0 9 -9 9 -21 0 -13 4 -18 12 -13 7 4 8 3 4 -4 -4 -6 0 -19 9 -29 8 -10 14 -20
13 -23 -2 -3 6 -18 18 -35 11 -16 24 -38 27 -48 4 -11 12 -15 18 -11 8 4 9 3
5 -4 -4 -7 -2 -12 4 -12 6 0 8 -5 5 -11 -4 -5 1 -19 11 -30 9 -10 13 -19 8
-19 -5 0 -1 -5 9 -11 9 -6 15 -14 12 -20 -4 -5 0 -12 8 -15 9 -3 13 -13 9 -26
-3 -14 -1 -19 6 -14 7 4 14 -3 18 -19 3 -13 10 -22 16 -19 5 3 8 -2 6 -12 -2
-12 2 -18 10 -16 8 1 11 -2 7 -8 -3 -5 -2 -10 4 -10 6 0 8 -7 5 -15 -4 -8 -1
-15 5 -15 6 0 11 -7 11 -15 0 -8 5 -15 10 -15 6 0 10 -7 10 -15 0 -8 8 -23 18
-33 9 -10 18 -25 20 -33 2 -7 8 -17 14 -20 5 -3 8 -9 6 -12 -1 -4 4 -14 12
-24 19 -22 19 -22 26 -50 4 -13 11 -23 16 -23 5 0 6 -4 3 -10 -3 -5 -1 -10 4
-10 6 0 11 -5 11 -12 0 -7 12 -25 28 -42 15 -17 18 -24 7 -16 -17 13 -17 11 3
-14 12 -16 22 -35 22 -42 0 -8 5 -14 10 -14 6 0 10 -6 10 -13 0 -7 9 -23 19
-34 11 -12 17 -24 14 -27 -4 -3 -1 -6 6 -6 7 0 10 -4 6 -9 -3 -5 -1 -12 4 -15
5 -4 22 -31 37 -61 16 -30 32 -55 37 -55 4 0 5 -5 2 -10 -3 -6 1 -13 9 -16 9
-3 16 -15 16 -25 0 -11 6 -22 14 -25 8 -3 12 -12 9 -20 -3 -8 0 -14 6 -14 6 0
11 -4 11 -9 0 -12 63 -115 73 -119 4 -2 5 -8 1 -13 -3 -5 0 -9 6 -9 6 0 8 -4
5 -10 -3 -5 2 -10 11 -10 10 0 15 -3 11 -6 -3 -4 4 -25 15 -48 12 -22 21 -44
20 -48 -1 -5 2 -8 6 -8 5 0 26 -34 47 -75 22 -41 42 -75 46 -75 4 0 11 -10 14
-22 4 -13 19 -38 33 -57 14 -19 19 -31 11 -27 -8 4 -4 -1 8 -12 12 -11 19 -22
16 -26 -4 -3 -1 -6 6 -6 7 0 9 -5 6 -11 -4 -6 1 -17 11 -24 11 -8 15 -15 11
-15 -5 0 1 -13 12 -29 12 -16 21 -33 21 -39 0 -5 10 -17 23 -26 12 -9 16 -14
8 -10 -16 8 -13 2 29 -61 15 -22 40 -66 55 -98 15 -32 33 -61 41 -64 8 -3 12
-9 9 -13 -3 -4 4 -19 15 -32 11 -14 16 -28 13 -32 -3 -3 -1 -6 5 -6 7 0 12 -7
12 -15 0 -8 5 -15 10 -15 6 0 10 -6 10 -14 0 -7 6 -19 13 -25 8 -6 19 -29 26
-50 6 -22 17 -43 23 -47 7 -5 8 -3 3 6 -5 8 -4 11 3 6 6 -3 9 -15 7 -26 -2
-13 2 -20 11 -20 8 0 12 -4 9 -10 -3 -5 -1 -10 6 -10 7 0 9 -3 6 -7 -4 -3 1
-12 11 -20 11 -10 12 -12 2 -8 -9 4 -8 1 3 -8 10 -9 18 -18 18 -21 -3 -20 0
-26 9 -21 5 3 7 0 4 -8 -3 -8 2 -17 11 -21 9 -3 13 -10 10 -16 -3 -5 -1 -10 5
-10 6 0 9 -4 6 -9 -3 -4 2 -17 10 -27 9 -10 12 -13 8 -5 -4 9 -3 12 4 7 6 -3
9 -15 7 -26 -2 -12 0 -18 6 -15 5 4 9 -1 9 -10 0 -9 4 -13 10 -10 5 3 7 0 4
-8 -3 -8 2 -20 10 -27 9 -7 13 -16 10 -21 -3 -5 -1 -9 4 -9 5 0 15 -13 22 -30
7 -16 17 -30 23 -30 6 0 7 -3 4 -7 -4 -3 0 -15 10 -25 9 -10 12 -18 8 -18 -4
0 0 -9 10 -20 10 -11 14 -20 10 -20 -5 0 0 -6 11 -14 10 -8 20 -18 20 -23 5
-30 18 -52 27 -46 6 4 8 0 4 -11 -4 -10 -1 -19 8 -22 8 -4 12 -10 9 -15 -3 -5
2 -12 10 -15 9 -3 14 -9 11 -13 -2 -4 6 -23 19 -42 13 -19 25 -38 27 -44 2 -5
8 -9 12 -7 5 1 6 -2 3 -7 -4 -5 1 -16 9 -25 9 -8 16 -19 17 -23 4 -28 11 -42
19 -37 5 3 6 -2 3 -10 -3 -9 -1 -16 5 -16 6 0 11 -7 11 -15 0 -8 10 -24 23
-36 12 -12 15 -18 7 -13 -8 4 -5 -5 8 -20 12 -16 22 -34 22 -42 0 -7 4 -14 9
-16 5 -1 11 -10 13 -18 2 -8 11 -22 21 -31 9 -9 17 -24 17 -33 0 -11 5 -14 12
-10 8 5 9 2 5 -9 -4 -10 0 -20 11 -26 9 -6 13 -11 8 -11 -6 0 -1 -7 10 -16 10
-8 12 -12 4 -8 -13 6 -12 4 1 -12 9 -10 28 -41 44 -69 15 -27 41 -75 58 -105
17 -30 34 -57 39 -58 4 -2 8 -10 8 -18 0 -8 5 -14 12 -14 6 0 9 -3 6 -6 -4 -3
9 -33 28 -66 19 -33 34 -64 34 -70 0 -5 4 -7 9 -4 8 5 25 -29 22 -46 -1 -5 4
-8 10 -8 5 0 7 -4 4 -10 -3 -5 -2 -10 3 -10 6 0 19 -18 30 -40 10 -22 22 -37
26 -33 3 3 6 -3 6 -15 0 -11 7 -28 16 -36 8 -9 12 -16 8 -16 -4 0 0 -8 8 -17
8 -10 21 -33 29 -50 8 -18 17 -33 21 -33 5 0 7 -3 7 -7 -3 -20 2 -34 11 -28 6
3 10 0 10 -8 0 -8 7 -20 15 -27 8 -7 12 -16 10 -21 -3 -4 3 -12 12 -18 10 -6
14 -11 9 -11 -5 0 -1 -10 10 -22 12 -13 13 -18 4 -13 -8 5 0 -10 18 -33 19
-23 31 -42 27 -42 -3 0 2 -12 12 -27 11 -16 25 -39 31 -53 29 -57 59 -100 67
-93 4 5 5 2 1 -4 -9 -16 17 -56 29 -45 5 4 5 2 2 -5 -10 -16 3 -44 16 -36 6 4
8 0 4 -10 -4 -10 3 -28 16 -44 12 -16 36 -54 52 -85 17 -32 33 -58 38 -58 4 0
7 -6 7 -12 0 -7 9 -24 20 -38 11 -14 20 -32 20 -41 0 -9 7 -22 15 -29 8 -7 27
-36 42 -66 15 -30 31 -54 36 -54 4 0 5 -4 2 -10 -3 -5 -1 -10 5 -10 6 0 8 -5
5 -10 -3 -6 -2 -10 3 -10 6 0 13 -11 16 -25 4 -14 11 -23 17 -20 5 4 8 3 7 -2
-5 -14 24 -73 33 -67 5 3 6 -2 3 -10 -3 -8 3 -20 14 -27 12 -7 17 -19 15 -30
-3 -11 1 -21 11 -25 9 -3 13 -10 10 -15 -3 -5 2 -9 10 -9 10 0 13 -6 10 -15
-4 -9 0 -15 10 -15 10 0 13 -5 9 -17 -5 -12 -3 -14 7 -8 9 6 11 4 6 -4 -5 -7
0 -21 10 -32 9 -10 13 -19 9 -19 -4 0 2 -9 14 -19 12 -11 22 -22 22 -25 0 -10
38 -91 57 -119 10 -15 22 -24 26 -20 4 4 4 0 0 -10 -3 -10 -1 -17 5 -17 6 0
11 -5 11 -12 0 -6 8 -20 18 -31 9 -11 11 -17 5 -13 -17 9 -17 1 0 -16 18 -19
97 -155 97 -167 0 -6 5 -11 10 -11 6 0 10 -6 10 -14 0 -7 7 -19 15 -26 8 -7
12 -16 9 -21 -3 -5 0 -9 5 -9 6 0 11 -6 11 -13 0 -7 8 -22 18 -33 10 -11 17
-25 14 -32 -2 -6 1 -12 7 -12 6 0 10 -6 8 -12 -1 -7 3 -12 10 -11 7 2 10 -3 7
-10 -3 -8 8 -26 23 -42 15 -16 21 -25 13 -21 -9 5 -8 2 2 -7 10 -8 15 -17 11
-20 -3 -4 2 -9 11 -13 9 -3 14 -10 11 -14 -3 -5 2 -16 11 -25 9 -9 14 -18 11
-22 -9 -8 17 -32 27 -25 5 3 7 -2 3 -11 -3 -10 -2 -17 4 -17 6 0 8 -4 5 -9 -3
-5 1 -14 9 -21 8 -7 15 -18 15 -26 0 -7 8 -20 17 -30 10 -9 18 -24 19 -32 2
-8 9 -19 16 -23 7 -5 9 -9 4 -9 -5 0 -2 -8 6 -17 9 -10 19 -28 22 -40 4 -13
12 -23 17 -23 6 0 7 -4 4 -10 -3 -6 -3 -10 2 -10 4 0 17 -12 27 -27 13 -17 14
-24 5 -19 -8 4 -6 1 5 -8 10 -8 15 -20 10 -27 -4 -8 -3 -10 4 -5 8 5 12 0 12
-13 0 -10 5 -21 12 -23 6 -2 13 -15 15 -28 2 -14 10 -28 18 -33 9 -4 13 -12
10 -18 -4 -5 -2 -9 3 -9 5 0 12 -9 15 -20 7 -27 21 -25 42 6 12 18 13 24 4 19
-8 -3 -6 0 3 8 10 8 15 17 11 20 -3 4 -1 7 5 7 6 0 9 7 5 17 -4 11 -3 14 5 9
7 -4 14 3 18 19 3 14 10 25 15 25 5 0 9 9 9 20 0 11 4 20 9 20 10 0 37 60 33
73 -1 5 2 6 8 2 9 -6 14 7 11 28 0 4 4 7 10 7 5 0 7 4 4 10 -3 5 -1 10 6 10 7
0 9 3 6 7 -4 3 1 12 11 20 10 9 11 12 2 7 -11 -6 -10 -2 3 13 9 11 14 23 10
27 -5 4 -1 6 7 4 10 -2 14 3 12 16 -2 11 1 15 7 11 6 -3 11 0 11 8 0 7 18 43
40 79 21 36 40 72 42 79 2 7 11 22 20 33 10 10 15 22 13 26 -3 4 4 15 15 25
10 9 22 30 25 46 4 18 11 26 18 22 6 -4 8 0 4 10 -3 9 0 18 9 21 9 3 12 10 9
16 -3 5 -1 10 5 10 6 0 8 5 5 10 -3 6 -2 10 2 10 5 0 14 12 20 27 6 16 20 42
30 58 56 94 71 124 66 129 -4 3 -1 6 5 6 10 0 22 24 22 43 -1 4 6 15 15 23 8
9 12 21 8 27 -3 7 -3 9 2 5 11 -11 38 29 29 44 -4 7 -3 8 4 4 11 -6 16 6 13
27 0 4 4 7 10 7 5 0 7 5 4 10 -3 6 -1 10 4 10 6 0 11 5 11 10 0 6 11 28 25 50
14 22 22 40 18 40 -5 0 0 5 10 11 9 6 15 14 12 20 -4 5 -3 9 2 9 4 0 14 15 22
33 8 17 26 50 40 72 28 44 34 65 20 65 -6 0 -7 5 -4 10 6 10 -40 81 -57 88 -5
2 -6 8 -3 13 3 5 -10 33 -29 64 -20 30 -35 58 -35 61 0 4 -4 10 -9 13 -6 3
-12 13 -14 21 -2 8 -10 22 -18 30 -8 8 -16 22 -18 30 -2 8 -9 18 -15 22 -7 4
-8 8 -3 8 6 0 1 7 -10 16 -10 8 -12 12 -4 8 13 -7 13 -6 0 12 -8 10 -18 21
-21 24 -4 3 -15 23 -26 45 -42 83 -54 103 -68 115 -8 7 -12 16 -9 21 3 5 1 9
-4 9 -5 0 -9 6 -9 13 0 18 -33 67 -46 67 -6 0 -7 3 -4 6 4 4 -2 19 -13 34 -11
15 -17 30 -13 34 3 3 1 6 -5 6 -6 0 -23 25 -38 55 -16 30 -32 55 -37 55 -4 0
-5 5 -2 10 3 6 2 10 -4 10 -6 0 -8 7 -5 15 5 11 2 13 -10 9 -12 -4 -15 -2 -11
9 4 8 0 21 -7 28 -16 16 -32 50 -30 62 1 4 -3 7 -8 7 -5 0 -9 4 -7 9 1 5 -1 8
-6 8 -4 -1 -17 18 -29 43 -12 25 -26 47 -30 48 -4 2 -8 10 -8 18 0 8 -5 14
-11 14 -5 0 -7 5 -4 10 3 6 1 10 -5 10 -6 0 -8 5 -5 10 3 6 1 10 -6 10 -7 0
-10 3 -6 6 3 4 -6 23 -21 42 -15 20 -20 33 -12 28 9 -4 8 -2 -2 7 -10 8 -15
17 -11 20 3 4 1 7 -5 7 -7 0 -12 5 -12 11 0 7 -8 18 -17 26 -12 10 -13 12 -3
8 10 -4 9 -2 -2 8 -10 8 -15 17 -11 20 3 4 -2 9 -11 13 -9 3 -16 13 -16 21 0
8 -10 29 -22 46 -13 18 -22 34 -21 37 0 3 -3 4 -9 2 -5 -1 -7 2 -3 7 3 6 -3
19 -13 29 -10 10 -16 24 -14 30 2 7 -1 12 -7 12 -6 0 -11 3 -10 8 2 16 -14 52
-21 47 -8 -5 -17 11 -18 29 0 5 -4 12 -9 15 -5 3 -17 24 -27 46 -10 22 -25 48
-34 58 -8 9 -12 17 -8 17 4 0 0 7 -8 16 -9 8 -16 22 -16 30 0 8 -4 14 -10 14
-5 0 -10 5 -10 11 0 7 -8 18 -17 26 -10 8 -12 11 -4 7 9 -4 7 3 -6 22 -29 44
-42 67 -53 92 -5 12 -14 22 -20 22 -6 0 -8 4 -5 10 3 6 1 10 -4 10 -6 0 -10 3
-9 8 2 4 -13 32 -32 62 -19 30 -33 58 -32 63 1 4 -3 7 -8 7 -6 0 -10 9 -10 21
0 11 -4 18 -8 15 -5 -3 -14 11 -21 30 -7 19 -17 32 -22 28 -6 -3 -10 0 -8 7 3
27 -1 40 -11 34 -6 -4 -10 -3 -9 2 4 17 -13 63 -22 58 -5 -3 -11 6 -15 20 -3
14 -10 25 -15 25 -5 0 -8 6 -6 13 1 6 -5 11 -13 9 -8 -2 -12 0 -8 3 4 4 -4 27
-17 51 -14 24 -21 44 -17 44 4 0 0 5 -8 10 -8 5 -15 14 -15 19 0 6 -9 17 -20
26 -11 9 -14 13 -6 9 8 -4 2 9 -13 29 -16 20 -25 37 -21 37 3 0 -3 12 -14 26
-11 15 -18 30 -15 35 3 5 -2 9 -11 9 -9 0 -13 5 -10 10 3 6 0 13 -9 16 -8 3
-12 12 -9 20 3 8 0 14 -6 14 -6 0 -11 7 -11 15 0 8 -4 15 -10 15 -5 0 -10 7
-10 16 0 8 -4 13 -8 10 -4 -2 -9 5 -9 16 -1 12 -8 25 -15 29 -7 5 -9 9 -4 9 5
0 -1 12 -15 27 -13 14 -17 23 -9 19 8 -4 6 1 -6 11 -11 10 -27 33 -34 50 -7
18 -17 33 -22 33 -5 0 -7 4 -3 10 3 5 -3 18 -15 30 -11 11 -17 20 -12 20 4 0
-2 7 -12 15 -11 8 -17 15 -13 15 8 0 -31 82 -43 90 -9 6 -54 91 -55 103 0 4
-7 12 -15 17 -8 5 -11 10 -7 10 4 0 -1 10 -12 22 -11 11 -18 25 -15 29 2 4 -4
12 -13 18 -10 6 -15 11 -11 11 4 0 0 9 -10 20 -9 12 -17 24 -17 28 0 4 -5 14
-10 22 -5 8 -19 33 -30 55 -12 22 -32 58 -46 80 -13 22 -23 43 -21 48 1 4 -2
7 -8 7 -5 0 -16 16 -24 35 -8 19 -20 35 -27 35 -7 0 -9 3 -6 6 3 4 1 16 -5 28
-7 11 -11 24 -10 29 1 4 -5 7 -14 7 -8 0 -12 5 -9 10 3 6 2 10 -2 10 -9 0 -48
80 -45 93 1 4 -2 7 -7 7 -5 0 -13 9 -16 20 -4 11 -11 17 -17 14 -7 -5 -8 -2
-3 5 4 7 -3 23 -16 38 -13 15 -17 23 -9 19 9 -5 8 -2 -2 7 -10 8 -15 17 -11
20 3 4 1 7 -6 7 -7 0 -17 14 -22 30 -6 16 -16 30 -22 30 -6 0 -8 3 -4 6 3 4
-9 30 -28 59 -18 29 -31 56 -28 59 4 3 1 6 -6 6 -7 0 -10 4 -7 9 3 5 -1 14 -9
21 -8 7 -12 17 -8 23 4 6 0 8 -10 4 -12 -4 -14 -2 -10 10 4 11 3 14 -6 9 -8
-5 -11 -3 -10 5 4 17 -16 56 -45 88 -12 14 -15 21 -6 17 9 -5 8 -2 -2 7 -10 8
-15 17 -11 20 3 4 1 7 -6 7 -7 0 -10 4 -7 9 3 5 -1 12 -10 15 -8 3 -13 10 -10
15 4 5 -2 17 -11 27 -9 9 -18 23 -19 31 -2 8 -10 23 -20 34 -9 10 -13 19 -8
19 5 0 1 5 -8 11 -10 5 -18 17 -18 25 0 8 -4 13 -9 9 -6 -3 -8 4 -6 15 2 11 0
20 -6 20 -5 0 -9 7 -9 16 0 8 -4 12 -10 9 -5 -3 -10 3 -10 14 0 12 -4 21 -8
21 -4 0 -14 16 -21 35 -7 21 -17 33 -23 29 -7 -5 -9 -2 -6 8 4 8 -4 28 -18 44
-13 16 -23 36 -24 45 0 9 -7 20 -16 23 -8 3 -13 10 -9 15 3 6 -3 14 -12 20
-10 6 -14 11 -10 11 5 0 -1 13 -12 29 -12 16 -21 34 -21 40 0 6 -4 11 -10 11
-5 0 -10 8 -10 18 0 10 -8 27 -18 38 -19 20 -36 54 -34 67 1 4 -5 7 -13 7 -9
0 -12 6 -9 15 4 8 1 15 -6 15 -6 0 -8 5 -5 10 3 6 1 10 -5 10 -6 0 -8 5 -5 10
3 6 -1 10 -10 10 -9 0 -13 5 -10 10 4 6 -4 20 -17 31 -13 11 -16 17 -8 13 8
-5 5 4 -8 20 -12 16 -19 32 -16 37 3 5 1 9 -4 9 -5 0 -17 15 -25 33 -9 18 -25
43 -36 56 -11 13 -18 28 -15 32 3 5 2 9 -3 9 -4 0 -17 12 -27 27 -11 14 -15
23 -9 20 6 -4 3 9 -6 27 -9 19 -18 32 -21 30 -4 -1 -12 6 -19 18 -10 16 -10
19 1 12 7 -4 5 1 -4 12 -9 10 -28 42 -43 69 -47 89 -71 125 -79 118 -4 -4 -4
0 0 10 3 10 1 17 -5 17 -6 0 -11 9 -11 20 0 11 -7 23 -15 26 -8 4 -13 10 -10
14 3 4 -2 10 -10 14 -8 3 -15 13 -15 23 0 25 -35 75 -45 66 -4 -5 -6 -1 -3 8
3 8 -3 26 -13 40 -10 13 -19 29 -19 35 0 6 -11 23 -24 37 -13 14 -21 28 -18
31 3 3 -3 14 -14 23 -10 10 -20 25 -22 33 -2 8 -8 17 -13 18 -5 2 -7 7 -4 12
3 4 -2 13 -10 20 -8 7 -15 17 -15 23 0 6 -10 22 -22 36 -19 21 -20 23 -3 11
17 -12 16 -10 -2 11 -13 14 -23 30 -23 35 0 5 -10 20 -23 34 -13 14 -22 31
-20 37 2 6 -5 17 -17 23 -11 6 -18 15 -15 19 7 12 -20 63 -28 54 -4 -3 -8 -1
-8 5 -1 7 -2 15 -3 20 0 4 -11 22 -24 40 -13 17 -20 32 -15 32 4 0 0 5 -9 10
-9 6 -19 24 -23 40 -4 16 -11 33 -17 36 -7 5 -8 2 -3 -6 5 -9 4 -11 -4 -6 -6
4 -9 11 -6 16 3 5 -1 15 -9 23 -8 8 -13 17 -10 19 2 3 -2 11 -11 18 -8 7 -15
21 -15 32 0 10 -7 21 -15 24 -8 4 -12 10 -9 15 3 5 -2 12 -10 15 -9 3 -14 10
-11 14 3 4 -2 13 -10 20 -8 7 -15 21 -15 31 0 11 -4 19 -9 19 -5 0 -17 16 -27
36 -11 20 -23 44 -29 55 -5 10 -13 19 -18 19 -4 0 -5 5 -2 10 3 6 1 10 -6 10
-7 0 -9 3 -6 6 3 4 -2 18 -13 32 -11 13 -17 28 -14 33 3 5 0 9 -7 9 -7 0 -10
3 -6 6 8 9 -16 33 -27 26 -5 -3 -7 2 -3 11 3 10 2 17 -4 17 -6 0 -8 4 -5 9 3
5 -1 14 -9 21 -8 7 -15 17 -15 22 0 10 -40 70 -55 80 -5 4 -7 8 -3 8 8 0 -31
80 -39 80 -2 0 -1 -5 3 -12 5 -7 3 -8 -5 -4 -7 5 -10 14 -7 22 3 8 1 14 -5 14
-6 0 -8 4 -5 8 3 5 -3 18 -14 29 -10 12 -16 24 -13 27 4 3 1 6 -5 6 -7 0 -12
7 -12 15 0 8 -5 15 -11 15 -5 0 -7 5 -4 10 3 6 1 10 -5 10 -6 0 -8 5 -5 10 3
6 1 10 -6 10 -7 0 -10 3 -6 6 3 4 -2 14 -11 23 -11 10 -12 12 -2 6 8 -5 3 4
-12 21 -16 17 -28 38 -28 48 0 10 -4 14 -12 10 -8 -5 -9 -2 -5 9 3 10 2 17 -3
17 -6 0 -10 9 -10 20 0 11 -3 19 -7 18 -5 -2 -9 2 -11 7 -2 6 -10 17 -18 26
-8 9 -11 19 -8 22 4 4 -1 9 -10 13 -9 3 -13 10 -10 15 3 5 0 9 -5 9 -6 0 -11
7 -11 15 0 8 -4 15 -10 15 -5 0 -6 7 -3 17 4 10 2 14 -4 10 -9 -6 -25 26 -20
36 1 2 -5 11 -13 20 -36 40 -38 43 -47 77 -3 11 -9 20 -13 20 -4 0 -11 12 -14
26 -4 14 -19 37 -34 51 -15 15 -20 22 -13 18 9 -5 6 4 -7 22 -12 17 -18 33
-14 37 4 4 0 6 -8 4 -9 -2 -14 3 -12 14 1 9 -8 24 -20 32 -13 9 -22 20 -21 24
5 14 -21 60 -30 55 -5 -3 -8 0 -5 8 2 7 -5 22 -16 32 -12 10 -15 15 -7 11 16
-8 8 9 -17 39 -8 9 -12 17 -7 17 4 0 -3 9 -16 21 -13 11 -17 17 -9 13 11 -5
10 -2 -3 13 -9 11 -14 23 -10 26 3 4 1 7 -5 7 -7 0 -12 7 -12 15 0 7 -6 18
-12 22 -19 12 -40 52 -33 63 4 6 -1 13 -9 16 -9 3 -16 11 -16 17 0 6 -10 22
-22 35 -13 14 -17 22 -10 18 8 -5 3 8 -9 27 -13 19 -28 33 -34 30 -5 -4 -7 -2
-2 2 4 5 0 16 -9 26 -8 9 -16 26 -17 38 -1 11 -5 21 -10 21 -4 0 -5 5 -2 10 3
6 -1 10 -10 10 -9 0 -13 5 -10 10 3 6 1 10 -5 10 -6 0 -8 5 -5 10 3 6 1 10 -4
10 -6 0 -11 7 -11 15 0 7 -8 18 -17 24 -10 5 -16 12 -14 16 7 12 -22 65 -32
58 -5 -3 -7 -1 -4 4 4 6 -2 22 -14 37 -11 14 -21 35 -22 45 -1 11 -3 18 -5 16
-3 -2 -14 7 -24 21 -11 14 -18 27 -15 30 3 3 -3 14 -14 25 -11 11 -17 24 -14
28 2 5 -2 11 -10 15 -8 3 -15 12 -15 21 0 8 -4 15 -9 15 -5 0 -12 16 -15 35
-4 20 -11 33 -16 30 -5 -3 -12 6 -16 20 -3 13 -10 22 -15 19 -5 -3 -9 3 -9 12
0 10 -10 29 -22 42 -13 14 -16 22 -8 18 8 -4 6 0 -4 8 -11 9 -16 16 -11 16 5
0 -2 11 -14 24 -12 13 -23 33 -24 44 0 11 -4 19 -7 17 -4 -2 -13 11 -20 30 -8
19 -17 35 -22 35 -4 0 -8 5 -8 12 0 6 -8 20 -17 31 -13 15 -14 18 -3 12 8 -5
3 4 -12 20 -26 26 -32 38 -29 58 1 4 -6 10 -14 13 -8 4 -15 13 -15 21 0 8 -6
21 -12 28 -23 26 -33 41 -36 55 -2 8 -11 24 -20 34 -13 15 -14 18 -2 12 8 -4
4 2 -10 13 -14 11 -21 21 -16 21 5 0 2 8 -7 18 -10 10 -14 22 -10 25 3 4 1 7
-5 7 -7 0 -12 7 -12 15 0 8 -5 15 -11 15 -5 0 -8 4 -5 9 3 5 -1 11 -9 15 -8 3
-15 15 -15 26 0 11 -4 20 -10 20 -5 0 -10 7 -10 15 0 8 -4 15 -10 15 -5 0 -6
7 -3 17 4 10 2 14 -5 9 -6 -4 -16 8 -23 28 -7 19 -17 32 -23 29 -5 -4 -7 0 -3
10 3 9 0 18 -9 21 -8 3 -14 14 -14 23 0 10 -9 26 -20 36 -11 9 -20 24 -20 32
0 8 -4 15 -10 15 -5 0 -10 3 -9 8 2 15 -14 52 -22 52 -5 0 -15 12 -21 28 -7
15 -19 36 -27 46 -14 17 -14 18 -1 11 11 -6 10 -3 -2 12 -10 11 -18 25 -18 31
0 7 -4 12 -10 12 -5 0 -10 5 -10 11 0 7 -8 18 -17 26 -12 10 -13 12 -3 8 10
-4 9 -2 -2 8 -10 8 -15 17 -11 20 3 4 1 7 -6 7 -7 0 -9 5 -6 10 3 6 2 10 -3
10 -5 0 -15 14 -22 30 -7 17 -17 30 -22 30 -5 0 -6 5 -3 10 3 6 1 10 -6 10 -7
0 -10 3 -6 6 3 4 -5 22 -18 42 -13 19 -21 40 -18 45 4 6 1 7 -7 2 -10 -6 -12
-4 -7 8 4 10 2 16 -6 14 -7 -1 -11 4 -10 11 2 6 -2 12 -8 12 -5 0 -7 5 -4 10
3 6 1 10 -4 10 -6 0 -11 7 -11 15 0 8 -5 15 -11 15 -5 0 -8 4 -5 8 3 5 -3 18
-14 29 -10 12 -16 24 -13 27 4 3 1 6 -6 6 -8 0 -11 6 -7 16 3 8 2 13 -3 10 -9
-6 -26 22 -23 37 1 4 -3 7 -9 7 -5 0 -8 4 -5 9 3 5 -1 12 -10 15 -9 4 -14 13
-10 22 3 8 2 12 -3 9 -9 -5 -27 34 -22 44 2 2 -1 7 -6 10 -19 14 -52 64 -47
72 3 5 0 9 -6 9 -6 0 -9 4 -6 9 3 5 -1 12 -10 15 -8 3 -13 10 -10 14 3 5 -4
19 -15 31 -11 12 -17 26 -13 33 4 7 3 8 -4 4 -7 -4 -12 -2 -12 5 0 7 -6 20
-14 28 -8 9 -16 23 -18 31 -2 8 -10 21 -18 28 -13 12 -13 13 0 7 10 -4 9 -2
-2 8 -10 8 -15 17 -11 20 3 4 1 7 -5 7 -11 0 -28 38 -24 53 1 5 -1 6 -6 3 -4
-2 -14 4 -21 16 -10 16 -10 19 1 13 7 -3 5 0 -6 9 -10 8 -15 20 -10 27 4 8 3
10 -4 5 -11 -6 -13 -3 -12 19 0 3 -4 11 -10 18 -43 50 -50 62 -45 74 2 8 1 11
-5 8 -11 -7 -32 29 -23 39 3 3 1 6 -6 6 -8 0 -11 7 -7 15 3 8 0 14 -7 12 -7
-1 -11 4 -9 11 1 6 -3 12 -9 12 -5 0 -7 5 -4 10 3 6 2 10 -3 10 -9 0 -24 31
-26 57 -1 6 -5 15 -10 20 -5 5 -6 2 -2 -7 4 -8 -2 -4 -13 10 -19 23 -22 30
-20 47 0 3 -6 10 -15 15 -9 5 -14 13 -11 19 4 5 1 9 -5 9 -6 0 -8 5 -5 10 3 6
-1 13 -9 16 -9 3 -14 10 -11 14 3 4 -2 13 -10 20 -8 7 -15 19 -15 26 0 8 -5
14 -11 14 -5 0 -8 4 -5 9 3 5 -1 14 -9 21 -8 7 -15 19 -15 26 0 8 -4 14 -10
14 -5 0 -10 9 -10 21 0 11 -4 17 -10 14 -9 -5 -15 16 -11 38 1 5 -2 6 -7 3 -4
-2 -14 10 -22 27 -7 18 -17 34 -20 37 -8 6 -47 80 -50 95 -1 6 -8 14 -16 18
-8 5 -12 12 -9 18 4 5 1 9 -4 9 -6 0 -11 7 -11 15 0 8 -4 15 -10 15 -5 0 -10
5 -10 12 0 6 -8 20 -17 31 -13 15 -14 19 -3 13 9 -5 8 -2 -2 7 -10 8 -15 17
-11 20 3 4 0 7 -7 7 -7 0 -11 3 -7 6 3 4 1 12 -6 20 -30 34 -37 44 -30 44 4 0
4 4 -2 8 -5 4 -21 27 -34 52 -14 25 -29 48 -35 52 -6 4 -7 8 -3 8 5 0 1 7 -7
16 -9 8 -14 20 -11 25 4 5 2 9 -3 9 -5 0 -14 12 -21 28 -7 15 -20 38 -29 52
-9 14 -17 29 -17 33 0 4 -7 12 -15 17 -8 5 -10 10 -5 10 6 0 5 4 -2 8 -6 4
-13 14 -15 22 -2 8 -11 23 -20 34 -10 10 -15 23 -12 28 3 4 0 8 -7 8 -7 0 -10
3 -6 6 3 3 -3 15 -13 27 -11 11 -17 24 -14 29 3 4 0 8 -6 8 -7 0 -9 7 -6 16 3
8 2 13 -2 10 -5 -3 -16 8 -26 25 -9 16 -14 29 -11 29 3 0 -3 10 -14 22 -11 11
-18 25 -15 30 3 4 0 8 -6 8 -6 0 -8 5 -5 10 3 6 3 10 -2 10 -4 0 -17 12 -27
27 -11 14 -13 23 -6 18 7 -5 5 4 -6 18 -10 15 -23 27 -27 27 -5 0 -5 5 -2 10
3 6 1 10 -5 10 -6 0 -8 5 -5 10 3 6 1 10 -4 10 -6 0 -11 7 -11 15 0 8 -5 15
-12 15 -6 0 -8 3 -5 6 4 4 -3 20 -14 35 -11 16 -17 29 -12 29 4 0 0 5 -10 11
-9 6 -15 14 -12 20 4 5 1 9 -4 9 -6 0 -11 7 -11 15 0 8 -5 15 -11 15 -5 0 -7
5 -4 10 3 6 2 10 -4 10 -6 0 -13 11 -17 25 -3 14 -10 25 -15 25 -5 0 -9 5 -9
11 0 7 -8 18 -17 26 -12 10 -13 12 -3 8 12 -5 12 -4 -1 7 -9 7 -14 18 -12 25
2 6 -6 18 -19 27 -12 9 -19 16 -14 16 5 0 1 9 -8 19 -10 11 -15 25 -10 32 4 8
3 10 -4 5 -11 -6 -17 6 -13 27 1 4 -6 10 -14 13 -8 4 -15 14 -15 24 0 10 -7
21 -16 24 -8 3 -12 10 -9 16 3 5 1 10 -5 10 -6 0 -8 5 -5 10 3 6 2 10 -4 10
-14 0 -52 75 -43 85 4 5 2 6 -3 2 -6 -3 -17 3 -24 15 -10 16 -10 19 1 13 7 -3
6 -1 -3 7 -17 14 -35 57 -30 73 1 5 -1 7 -5 3 -4 -4 -18 14 -32 40 -14 26 -30
50 -36 54 -6 4 -8 8 -4 8 7 0 -28 59 -51 87 -6 6 -13 23 -16 36 -4 14 -15 33
-26 43 -10 9 -19 23 -19 30 0 7 -7 20 -16 28 -8 9 -12 16 -8 16 3 0 0 7 -7 16
-15 18 -24 33 -58 98 -14 25 -29 46 -33 46 -5 0 -7 4 -4 8 3 5 -5 20 -17 34
-18 21 -24 23 -35 12z"/>
<path d="M13609 17665 c-1 -5 -1 -14 0 -18 1 -5 -3 -6 -9 -2 -5 3 -18 -11 -27
-32 -10 -21 -30 -57 -45 -79 -15 -23 -24 -44 -21 -48 4 -3 1 -6 -5 -6 -6 0
-14 -10 -17 -22 -4 -13 -17 -36 -29 -53 -13 -16 -35 -55 -51 -85 -16 -30 -35
-63 -43 -72 -8 -9 -11 -22 -6 -29 4 -7 3 -10 -3 -6 -10 6 -70 -100 -65 -116 1
-5 -2 -6 -8 -2 -5 3 -10 1 -10 -4 0 -6 0 -13 0 -16 0 -3 -9 -14 -21 -26 -11
-11 -18 -27 -15 -35 3 -8 2 -13 -3 -10 -5 3 -14 -8 -21 -24 -7 -17 -17 -30
-22 -30 -5 0 -7 -4 -4 -9 3 -5 -1 -14 -9 -21 -8 -7 -12 -16 -9 -21 3 -5 1 -9
-4 -9 -7 0 -46 -70 -43 -78 1 -1 -3 -8 -9 -15 -15 -18 -81 -130 -83 -142 -1
-5 -9 -15 -17 -22 -8 -7 -11 -13 -7 -13 5 0 1 -7 -7 -16 -9 -8 -14 -20 -11
-25 4 -5 2 -9 -4 -9 -10 0 -44 -56 -39 -63 2 -2 -5 -11 -15 -21 -9 -10 -15
-21 -12 -25 2 -5 -4 -16 -15 -26 -11 -10 -17 -22 -14 -26 3 -5 0 -9 -5 -9 -6
0 -11 -7 -11 -15 0 -8 -4 -15 -10 -15 -5 0 -10 -6 -10 -14 0 -8 -6 -21 -12
-28 -11 -11 -31 -48 -55 -100 -2 -3 2 -13 9 -20 18 -19 48 -69 55 -90 3 -10
10 -18 15 -18 5 0 6 -4 3 -10 -3 -5 -2 -10 3 -10 5 0 15 -13 22 -30 7 -16 17
-30 22 -30 5 0 7 -4 3 -9 -3 -5 1 -16 9 -24 8 -8 12 -17 9 -21 -4 -3 -1 -6 6
-6 7 0 10 -4 6 -9 -3 -5 0 -13 5 -16 6 -4 15 -17 20 -28 6 -12 21 -40 35 -62
14 -22 30 -50 37 -62 6 -13 15 -23 20 -23 5 0 6 -4 3 -10 -3 -5 -1 -10 5 -10
6 0 9 -4 6 -9 -3 -4 3 -19 14 -31 11 -13 20 -29 20 -37 0 -7 5 -13 11 -13 5 0
7 -5 4 -10 -3 -6 1 -13 9 -16 9 -3 13 -10 10 -15 -3 -5 0 -9 5 -9 6 0 10 -3
10 -7 -3 -20 2 -34 11 -28 6 3 10 1 10 -6 0 -7 8 -21 18 -32 9 -11 11 -17 4
-13 -11 7 -11 4 0 -13 7 -12 16 -21 20 -21 5 0 8 -6 8 -14 0 -7 7 -19 15 -26
9 -7 13 -15 11 -17 -2 -3 3 -13 12 -24 9 -11 15 -22 12 -24 -3 -2 4 -11 15
-20 11 -9 13 -13 5 -9 -13 7 -13 6 0 -12 8 -10 19 -22 23 -25 5 -3 8 -9 8 -13
-2 -11 32 -71 48 -84 9 -8 10 -11 4 -7 -9 4 -11 1 -7 -9 3 -9 10 -16 14 -16 4
0 13 -14 19 -31 6 -17 15 -28 21 -24 5 3 7 0 5 -8 -3 -7 5 -26 19 -42 14 -16
23 -32 20 -37 -3 -4 0 -8 6 -8 6 0 8 -4 5 -10 -3 -5 -1 -10 6 -10 7 0 9 -3 6
-6 -3 -4 3 -18 13 -32 11 -13 20 -29 20 -34 0 -5 10 -19 23 -30 12 -11 16 -16
8 -13 -14 8 15 -44 32 -56 5 -3 8 -10 8 -15 0 -5 7 -18 17 -30 9 -11 18 -27
20 -35 2 -7 7 -16 10 -19 4 -3 8 -12 10 -20 2 -8 10 -22 18 -31 8 -8 14 -21
14 -28 0 -7 5 -9 12 -5 8 5 9 2 5 -10 -4 -10 -1 -19 8 -22 8 -4 15 -15 15 -25
0 -10 5 -19 10 -19 6 0 10 -7 10 -15 0 -9 7 -18 15 -21 8 -4 13 -10 10 -14 -2
-4 4 -18 15 -30 11 -13 20 -27 20 -32 0 -17 3 -23 19 -36 12 -10 12 -12 1 -6
-12 6 -12 4 1 -12 10 -10 27 -37 39 -59 13 -22 34 -60 48 -85 14 -25 29 -47
34 -48 4 -2 6 -8 2 -13 -3 -5 2 -12 10 -15 9 -3 14 -10 11 -14 -3 -5 7 -24 23
-42 16 -18 27 -39 24 -47 -3 -8 0 -11 7 -7 7 5 9 1 5 -8 -3 -9 -1 -16 5 -16 6
0 11 -7 11 -15 0 -8 5 -15 11 -15 5 0 7 -4 4 -10 -3 -5 -1 -10 5 -10 6 0 8 -4
5 -10 -3 -5 -1 -10 4 -10 6 0 11 -7 11 -15 0 -8 5 -15 12 -15 6 0 8 -3 5 -7
-4 -3 1 -12 11 -20 9 -8 11 -11 4 -8 -11 6 -12 3 -3 -14 7 -11 16 -21 22 -21
6 0 8 -4 5 -9 -3 -4 3 -16 13 -25 10 -9 26 -34 36 -56 10 -22 22 -40 27 -40 5
0 7 -4 4 -9 -3 -5 1 -14 9 -21 8 -7 12 -16 9 -21 -3 -5 0 -9 5 -9 6 0 11 -7
11 -15 0 -8 8 -18 18 -23 9 -5 258 -10 552 -10 294 -1 600 -2 680 -2 406 -2
409 -2 403 20 -3 11 -10 20 -15 20 -5 0 -8 6 -5 13 2 6 -3 18 -12 25 -13 11
-13 12 -1 6 8 -4 5 4 -7 18 -13 13 -23 28 -23 33 0 5 -12 22 -27 38 -16 17
-22 27 -16 23 9 -5 11 -2 7 8 -3 9 -10 16 -14 16 -4 0 -11 11 -14 25 -4 14
-11 25 -17 25 -6 0 -7 5 -4 10 3 6 1 10 -5 10 -6 0 -8 5 -5 10 3 6 1 10 -4 10
-6 0 -11 7 -11 16 0 9 -5 12 -12 8 -8 -5 -9 -2 -5 9 3 10 2 17 -3 17 -6 0 -10
7 -10 15 0 8 -4 15 -10 15 -5 0 -10 5 -10 12 0 6 -8 20 -17 31 -10 12 -12 17
-4 12 14 -8 -27 55 -44 67 -7 5 -7 8 0 8 7 0 7 3 0 8 -11 8 -18 19 -60 100
-15 29 -31 55 -36 58 -5 3 -7 10 -4 15 4 5 2 9 -3 9 -5 0 -15 14 -22 30 -7 17
-17 30 -22 30 -5 0 -7 4 -3 9 3 5 -2 17 -11 25 -8 9 -12 16 -8 16 4 0 0 8 -8
18 -9 9 -28 41 -43 70 -15 28 -31 52 -37 52 -5 0 -6 5 -3 10 3 6 -1 13 -9 16
-9 3 -13 11 -9 17 3 5 -1 15 -9 21 -15 11 -18 17 -18 36 0 5 -10 19 -22 31
-13 12 -17 19 -10 15 11 -7 -23 51 -48 81 -5 7 -10 19 -10 27 0 8 -5 18 -10
21 -6 4 -20 25 -31 48 -12 23 -26 45 -31 48 -5 3 -9 9 -9 13 3 20 0 26 -9 21
-5 -3 -11 -1 -11 4 -2 19 -5 25 -24 64 -10 20 -23 37 -27 37 -5 0 -6 5 -3 10
3 6 2 10 -4 10 -5 0 -13 10 -17 23 -4 12 -24 49 -45 81 -22 33 -39 66 -39 73
0 7 -4 13 -9 13 -5 0 -11 8 -14 18 -7 22 -39 75 -50 83 -5 3 -7 9 -5 12 1 4
-4 15 -12 25 -8 10 -16 25 -18 33 -2 8 -9 21 -16 29 -6 8 -22 35 -35 60 -13
25 -29 52 -36 60 -6 8 -25 41 -41 72 -16 32 -33 58 -37 58 -5 0 -5 5 -2 10 3
6 -1 13 -9 16 -9 3 -14 9 -12 13 7 10 -40 82 -48 74 -4 -4 -4 0 0 10 3 10 1
17 -5 17 -6 0 -11 6 -11 14 0 7 -7 19 -15 26 -8 7 -12 16 -9 21 3 5 0 9 -5 9
-6 0 -11 6 -11 14 0 8 -7 22 -16 30 -8 9 -13 16 -9 16 7 0 -34 62 -48 71 -5 3
-8 9 -8 13 2 17 -1 24 -21 46 -13 14 -21 26 -19 28 7 7 -61 122 -70 116 -5 -3
-8 -2 -7 3 3 12 -25 83 -33 83 -4 0 -9 9 -12 21 -3 12 -10 19 -14 16 -5 -3
-10 4 -10 16 -1 12 -10 27 -19 34 -10 7 -15 13 -11 13 11 0 -24 64 -40 73 -7
5 -11 12 -8 18 4 5 1 9 -4 9 -6 0 -10 3 -9 8 3 12 -25 62 -34 62 -5 0 -7 4 -3
9 3 5 1 12 -4 15 -5 3 -21 29 -36 58 -15 29 -42 78 -60 108 -18 30 -58 97 -88
147 -29 51 -58 89 -62 85 -5 -4 -5 -2 -1 5 3 6 -7 35 -24 63 -16 28 -30 55
-30 60 0 4 -4 10 -8 12 -8 3 -34 47 -89 148 -14 25 -30 48 -37 52 -6 4 -8 8
-4 8 10 0 -40 92 -58 106 -8 6 -12 13 -9 15 2 3 -9 27 -25 54 -16 28 -30 46
-31 40z"/>
<path d="M10516 12532 c-5 -8 13 -44 72 -142 23 -40 42 -76 42 -81 0 -5 5 -9
10 -9 6 0 10 -6 10 -12 1 -7 10 -24 21 -38 l21 -25 642 2 c1463 6 2913 12
3556 16 377 2 715 1 753 -1 l67 -4 0 -39 c0 -38 -28 -119 -42 -119 -3 0 -12
-16 -18 -35 -7 -21 -16 -32 -22 -29 -6 4 -8 2 -4 -4 3 -6 0 -16 -7 -24 -15
-15 -48 -74 -80 -140 -12 -26 -28 -48 -36 -48 -8 0 -11 -3 -8 -6 4 -4 -2 -19
-13 -34 -11 -15 -17 -30 -13 -34 3 -3 2 -6 -4 -6 -5 0 -20 -22 -33 -50 -13
-27 -27 -50 -31 -50 -5 0 -18 -33 -19 -48 0 -1 -9 -12 -19 -24 -11 -11 -18
-25 -15 -30 3 -4 1 -8 -3 -8 -5 0 -17 -17 -28 -37 -10 -21 -27 -50 -36 -64
-10 -14 -19 -32 -21 -39 -2 -8 -9 -21 -15 -28 -7 -7 -13 -20 -13 -28 0 -8 -4
-14 -9 -14 -5 0 -20 -21 -32 -47 -13 -27 -29 -54 -36 -61 -7 -7 -13 -18 -13
-23 0 -5 -16 -33 -35 -64 -20 -30 -32 -55 -28 -55 4 0 1 -5 -7 -10 -8 -5 -15
-13 -15 -17 0 -4 -11 -26 -24 -48 -41 -66 -50 -85 -43 -85 4 0 -1 -5 -10 -11
-10 -5 -18 -19 -18 -30 0 -11 -4 -18 -9 -15 -5 3 -12 -5 -15 -19 -4 -14 -11
-25 -16 -25 -5 0 -6 -7 -3 -17 4 -11 3 -14 -5 -9 -11 7 -17 -14 -12 -39 1 -5
-2 -7 -6 -3 -4 4 -34 -41 -68 -100 -33 -59 -64 -109 -68 -110 -5 -2 -6 -8 -2
-13 3 -5 1 -9 -4 -9 -5 0 -15 -15 -23 -32 -7 -18 -16 -35 -19 -38 -3 -3 -18
-25 -31 -50 -52 -91 -72 -126 -105 -181 -19 -31 -34 -62 -34 -68 0 -6 -4 -11
-10 -11 -5 0 -10 -5 -10 -12 0 -6 -6 -19 -14 -27 -7 -9 -30 -47 -51 -86 -21
-38 -45 -81 -54 -95 -9 -14 -23 -38 -31 -55 -8 -16 -17 -32 -20 -35 -3 -3 -14
-22 -25 -42 -11 -21 -23 -38 -27 -38 -5 0 -8 -9 -8 -20 0 -11 -4 -20 -9 -20
-5 0 -14 -12 -20 -27 -15 -37 -44 -86 -55 -94 -5 -4 -5 -12 -2 -18 4 -6 2 -11
-4 -11 -6 0 -15 -10 -20 -22 -6 -13 -20 -39 -33 -59 -12 -20 -49 -83 -81 -140
-33 -57 -62 -106 -66 -109 -3 -3 -17 -26 -29 -52 -13 -27 -27 -48 -32 -48 -6
0 -8 -4 -4 -9 3 -5 0 -15 -7 -23 -17 -17 -61 -98 -54 -98 3 0 -2 -8 -11 -18
-21 -22 -57 -84 -55 -94 1 -3 -5 -12 -13 -18 -8 -7 -15 -19 -15 -26 0 -8 -5
-14 -11 -14 -5 0 -7 -4 -4 -10 3 -5 1 -10 -5 -10 -6 0 -8 -4 -5 -10 3 -5 2
-10 -3 -10 -5 0 -17 -18 -28 -40 -10 -22 -23 -40 -27 -40 -5 0 -5 -4 -2 -10 3
-5 1 -10 -4 -10 -6 0 -11 -4 -11 -10 0 -5 -16 -34 -35 -65 -20 -30 -32 -55
-28 -55 4 0 3 -4 -2 -8 -18 -12 -46 -62 -40 -71 2 -5 -2 -11 -10 -15 -8 -3
-15 -12 -15 -20 0 -8 -5 -16 -12 -18 -6 -2 -12 -11 -13 -19 -2 -8 -23 -46 -47
-85 -24 -38 -51 -84 -59 -101 -7 -18 -17 -33 -21 -33 -5 0 -7 -3 -6 -7 1 -5
-13 -33 -32 -63 -19 -30 -35 -57 -35 -60 0 -9 -49 -85 -59 -92 -6 -4 -7 -8 -2
-8 5 0 1 -9 -9 -20 -10 -11 -14 -20 -9 -20 5 0 4 -4 -2 -8 -6 -4 -21 -27 -35
-52 -13 -25 -26 -47 -29 -50 -12 -12 -30 -51 -30 -64 0 -8 -7 -16 -15 -20 -8
-3 -15 -12 -15 -20 0 -8 -3 -16 -7 -18 -5 -1 -17 -21 -28 -43 -11 -22 -33 -59
-48 -82 -16 -24 -25 -48 -21 -54 4 -7 3 -9 -4 -5 -6 3 -14 -3 -17 -15 -7 -21
-74 -131 -95 -157 -6 -7 -8 -17 -5 -22 3 -6 1 -10 -4 -10 -6 0 -11 -7 -11 -15
0 -8 -5 -15 -11 -15 -6 0 -8 -7 -5 -16 3 -8 2 -12 -3 -9 -5 3 -15 -10 -22 -30
-7 -19 -15 -32 -18 -30 -7 8 -40 -68 -34 -79 4 -5 1 -6 -4 -3 -6 4 -16 -7 -23
-23 -7 -16 -21 -39 -31 -52 -11 -12 -17 -28 -14 -35 2 -8 1 -12 -4 -9 -8 5
-36 -42 -33 -56 1 -5 -3 -8 -8 -8 -6 0 -10 -6 -10 -14 0 -7 -7 -19 -15 -26 -9
-7 -13 -15 -11 -17 2 -3 -3 -13 -12 -24 -9 -11 -17 -23 -17 -27 -1 -4 -14 -27
-29 -52 -16 -25 -29 -51 -29 -57 0 -7 -4 -13 -9 -13 -4 0 -14 -16 -23 -35 -8
-20 -21 -43 -30 -52 -9 -8 -14 -22 -11 -30 3 -8 1 -11 -4 -8 -6 3 -10 2 -10
-3 0 -5 -10 -22 -22 -38 -12 -15 -23 -34 -24 -42 -2 -8 -12 -24 -23 -36 -12
-12 -21 -28 -21 -34 0 -7 -5 -12 -12 -12 -6 0 -8 -3 -5 -7 4 -3 1 -13 -7 -22
-8 -9 -22 -32 -33 -51 -10 -19 -36 -63 -57 -97 -37 -60 -41 -63 -80 -64 -160
-2 -2021 -10 -3231 -13 -803 -2 -1460 -5 -1460 -6 0 0 -675 -3 -1500 -5 -2297
-7 -2995 -10 -2995 -13 0 -5 55 -87 67 -100 6 -6 15 -21 18 -32 3 -11 11 -20
17 -20 6 0 8 -3 5 -6 -5 -6 25 -58 43 -74 3 -3 14 -22 25 -42 11 -21 22 -38
25 -38 3 0 14 -17 25 -37 11 -21 32 -54 47 -74 15 -20 28 -40 28 -43 0 -7 61
-101 80 -124 6 -6 8 -12 5 -12 -3 0 3 -10 15 -22 11 -12 20 -26 20 -30 0 -5 9
-18 20 -30 11 -12 20 -28 20 -35 0 -7 5 -13 10 -13 6 0 10 -6 10 -13 0 -7 9
-23 20 -35 11 -12 19 -25 18 -30 -2 -5 9 -23 24 -40 15 -17 34 -45 44 -64 9
-18 22 -36 28 -40 6 -4 7 -8 2 -8 -5 0 1 -8 12 -19 12 -10 19 -21 15 -25 -3
-3 0 -6 7 -6 7 0 11 -3 7 -6 -3 -4 8 -26 26 -49 34 -46 67 -101 66 -112 -1 -3
6 -10 15 -15 9 -5 16 -16 16 -23 0 -8 4 -15 9 -15 5 0 13 -9 16 -20 3 -11 12
-26 18 -33 7 -7 20 -26 29 -42 l17 -30 253 -3 c543 -5 1208 -7 1208 -2 0 3
102 4 227 2 126 -1 2512 -5 5303 -7 2791 -3 6233 -6 7648 -8 1414 -2 2572 0
2572 4 0 3 -8 17 -19 30 -10 13 -18 27 -17 31 0 4 -7 16 -16 28 -10 11 -16 20
-13 20 2 0 -6 15 -19 34 -12 19 -29 48 -36 65 -7 17 -17 31 -22 31 -5 0 -6 5
-3 10 3 6 2 10 -2 10 -5 0 -17 18 -27 40 -10 22 -22 40 -27 40 -5 0 -8 3 -7 8
3 7 -71 143 -82 152 -4 3 -13 20 -21 38 -8 17 -17 32 -21 32 -5 0 -8 9 -8 20
0 11 -4 20 -10 20 -5 0 -10 7 -10 15 0 8 -4 15 -9 15 -5 0 -11 8 -15 18 -16
45 -63 122 -71 115 -4 -4 -5 -3 -1 4 3 6 2 14 -4 18 -6 4 -8 11 -5 16 4 5 -2
9 -11 9 -10 0 -14 3 -11 6 6 6 -30 82 -44 94 -3 3 -14 21 -24 40 -10 19 -21
37 -24 40 -4 3 -13 20 -20 38 -8 17 -18 32 -23 32 -5 0 -7 4 -4 8 3 5 -2 18
-12 28 -9 11 -18 26 -20 34 -2 8 -7 17 -10 20 -7 5 -25 34 -47 77 -7 13 -15
20 -19 16 -4 -4 -4 -1 -1 8 3 8 -6 30 -19 48 -14 19 -23 38 -20 42 3 5 -2 9
-11 9 -9 0 -14 4 -10 9 3 5 -2 17 -11 25 -8 9 -12 16 -7 16 4 0 4 4 -2 8 -12
8 -54 80 -62 105 -3 9 -10 17 -15 17 -5 0 -6 5 -3 10 3 6 1 10 -5 10 -6 0 -8
5 -5 10 3 6 1 10 -4 10 -6 0 -11 7 -11 15 0 8 -4 15 -8 15 -5 0 -14 16 -22 35
-7 19 -18 31 -23 28 -6 -4 -7 -1 -3 6 5 7 1 20 -7 29 -15 17 -46 69 -74 125
-8 15 -18 27 -23 27 -5 0 -7 7 -4 15 4 8 1 15 -5 15 -6 0 -11 7 -11 15 0 8 -4
15 -9 15 -5 0 -11 8 -14 18 -8 22 -46 89 -74 129 -13 17 -23 34 -23 37 0 5
-42 77 -79 136 -8 14 -16 28 -16 32 0 4 -6 13 -12 19 -7 7 -13 19 -13 26 0 7
-9 18 -19 25 -10 6 -17 17 -14 23 2 7 -2 19 -9 26 -7 8 -24 35 -38 62 -14 26
-28 47 -32 47 -5 0 -8 7 -8 15 0 8 -5 15 -12 15 -6 0 -9 3 -6 6 3 3 -22 53
-56 112 -35 59 -69 118 -77 132 -8 14 -20 33 -28 43 -8 9 -11 17 -6 17 4 0 -4
15 -19 34 -14 19 -26 42 -26 50 0 9 -4 16 -9 16 -5 0 -14 14 -21 30 -7 17 -17
30 -23 30 -6 0 -7 3 -4 6 4 4 -2 19 -13 34 -11 15 -17 30 -13 34 3 3 2 6 -4 6
-5 0 -18 18 -28 40 -10 22 -21 40 -25 40 -4 0 -10 8 -14 18 -3 9 -15 33 -26
52 -40 68 -44 75 -42 83 1 4 -2 7 -8 7 -5 0 -10 7 -10 15 0 8 -5 15 -11 15 -5
0 -7 5 -4 10 3 6 2 10 -3 10 -5 0 -13 8 -16 18 -8 21 -28 55 -45 76 -7 9 -10
16 -7 16 4 0 -2 13 -13 29 -12 16 -21 34 -21 40 0 6 -4 11 -8 11 -5 0 -21 27
-37 60 -16 33 -32 60 -37 60 -4 0 -8 7 -8 15 0 8 -5 15 -10 15 -6 0 -9 3 -8 8
3 9 -21 52 -39 70 -7 8 -11 18 -8 23 4 5 1 9 -4 9 -6 0 -11 7 -11 15 0 8 -4
15 -10 15 -5 0 -6 7 -3 17 4 11 3 14 -5 9 -7 -4 -12 -1 -12 7 0 8 -14 33 -31
57 -17 23 -25 39 -17 35 7 -3 4 1 -6 9 -11 9 -17 16 -13 16 4 0 -6 19 -23 41
-16 23 -27 45 -25 49 3 4 -2 11 -11 14 -8 3 -12 10 -9 16 3 5 2 10 -3 10 -4 0
-14 16 -22 35 -8 19 -18 35 -22 35 -5 0 -6 5 -3 10 3 6 2 10 -4 10 -5 0 -13
10 -17 23 -4 12 -9 24 -13 27 -9 8 -40 61 -59 103 -9 20 -20 37 -24 37 -5 0
-8 7 -8 15 0 8 -4 15 -8 15 -5 0 -14 16 -22 35 -8 19 -16 35 -19 35 -3 0 -15
20 -26 45 -11 25 -23 45 -26 45 -4 0 -16 18 -28 40 -11 22 -18 40 -15 40 3 0
-2 7 -11 16 -9 9 -13 24 -10 32 3 9 3 13 -1 9 -7 -7 -82 102 -87 126 -1 6 -10
20 -19 31 -10 10 -15 23 -12 28 3 4 1 8 -5 8 -6 0 -13 11 -17 25 -3 14 -10 25
-16 25 -5 0 -6 5 -3 10 3 6 1 10 -4 10 -6 0 -11 7 -11 15 0 8 -3 15 -7 15 -5
0 -13 10 -19 23 -20 43 -59 111 -71 125 -7 7 -16 24 -19 38 -3 13 -10 24 -14
24 -5 0 -14 16 -21 35 -7 19 -16 35 -20 35 -4 0 -13 16 -20 35 -7 19 -16 35
-19 35 -7 0 -27 39 -28 54 0 5 -4 12 -9 15 -5 3 -17 23 -26 43 -10 20 -22 40
-27 43 -6 4 -8 11 -5 16 4 5 2 9 -2 9 -5 0 -17 17 -28 38 -11 20 -26 43 -32
50 -7 7 -13 20 -13 28 0 8 -3 14 -8 14 -8 0 -38 61 -34 73 1 4 -2 7 -8 7 -5 0
-10 7 -10 15 0 8 -3 15 -7 15 -5 0 -13 10 -19 23 -37 74 -48 94 -62 110 -8 9
-11 17 -6 17 5 0 4 4 -1 8 -17 12 -45 60 -45 77 0 10 -5 13 -12 9 -8 -5 -9 -2
-5 10 4 9 3 15 -2 12 -8 -6 -48 72 -43 86 1 5 -2 8 -7 8 -10 0 -55 73 -52 84
0 3 -8 15 -20 27 -11 11 -18 27 -15 35 3 8 0 13 -7 11 -7 -1 -11 6 -11 15 1
10 -2 16 -5 13 -8 -4 -43 61 -38 70 1 2 -7 10 -17 18 -12 9 -16 19 -11 27 5 8
4 11 -2 7 -6 -4 -14 0 -17 9 -4 10 -2 13 7 9 6 -4 5 -1 -4 7 -16 14 -33 48
-31 61 1 4 -5 7 -14 7 -8 0 -12 5 -9 10 3 6 1 10 -5 10 -6 0 -8 5 -5 10 3 6 1
10 -5 10 -6 0 -8 5 -5 10 3 6 1 10 -6 10 -7 0 -10 3 -6 6 3 4 -1 13 -9 21 -8
9 -13 22 -10 30 3 8 1 11 -4 8 -6 -3 -10 1 -10 9 0 9 -4 16 -8 16 -4 0 -16 14
-26 31 -13 23 -15 30 -5 25 8 -4 6 -1 -3 7 -10 8 -18 19 -18 26 0 6 -5 11 -11
11 -6 0 -9 7 -5 15 3 8 0 14 -7 12 -7 -1 -11 6 -11 15 1 10 -3 15 -9 11 -6 -4
-8 0 -4 11 4 10 3 15 -3 11 -6 -3 -10 1 -10 10 0 9 -6 23 -12 30 -31 34 -36
43 -31 49 4 3 1 6 -5 6 -6 0 -9 7 -6 15 4 8 -1 17 -10 21 -9 3 -16 12 -16 19
0 7 -4 15 -9 17 -5 2 -11 10 -13 18 -2 8 -9 21 -16 28 -7 8 -10 18 -7 23 4 5
1 9 -5 9 -6 0 -8 5 -5 10 3 6 -1 13 -9 16 -9 3 -16 13 -16 20 0 8 -7 17 -16
21 -8 3 -13 12 -10 20 4 9 2 11 -6 7 -8 -5 -9 -2 -5 10 4 9 3 15 -2 12 -5 -3
-12 1 -15 10 -4 10 -2 13 7 8 6 -4 2 4 -11 18 -12 13 -19 28 -15 31 3 4 1 7
-6 7 -8 0 -11 6 -7 16 3 8 2 13 -3 9 -5 -3 -17 13 -27 35 -10 22 -22 40 -27
40 -5 0 -7 6 -4 13 2 6 -5 20 -16 30 -11 9 -16 17 -11 17 5 0 2 6 -6 13 -8 7
-21 23 -28 36 -11 19 -11 22 0 15 7 -4 5 2 -4 13 -10 11 -18 25 -18 31 0 7 -5
12 -11 12 -5 0 -7 5 -3 12 4 7 3 8 -5 4 -6 -4 -9 -11 -6 -16 3 -5 -3 -13 -12
-19 -10 -6 -14 -11 -9 -11 5 0 3 -7 -4 -15 -7 -8 -9 -15 -4 -15 5 0 5 -4 -1
-8 -18 -13 -51 -56 -36 -47 9 5 7 -1 -4 -19 -10 -14 -22 -26 -27 -26 -6 0 -8
-7 -4 -15 3 -8 1 -15 -4 -15 -6 0 -9 -6 -7 -12 1 -7 -4 -12 -11 -10 -8 1 -11
-2 -6 -9 3 -6 0 -15 -7 -20 -8 -4 -14 -16 -14 -26 0 -10 -5 -17 -12 -16 -7 2
-10 -6 -8 -16 2 -11 -3 -22 -11 -25 -9 -3 -12 -10 -9 -16 3 -6 -1 -13 -10 -16
-8 -4 -14 -14 -13 -23 2 -9 -3 -15 -10 -13 -8 1 -11 -2 -7 -8 4 -7 -4 -23 -16
-37 -13 -15 -18 -23 -11 -19 19 11 14 -1 -13 -30 -14 -15 -25 -35 -25 -45 0
-10 -6 -22 -12 -26 -7 -4 -20 -17 -28 -27 -13 -18 -13 -19 0 -12 8 4 7 1 -3
-7 -10 -9 -19 -19 -20 -24 -1 -4 -5 -7 -9 -6 -4 2 -5 -4 -2 -12 4 -8 1 -15 -6
-15 -6 0 -8 -4 -5 -10 3 -5 1 -10 -5 -10 -6 0 -9 -4 -5 -9 3 -5 -2 -17 -11
-25 -8 -9 -12 -16 -8 -16 4 0 -1 -7 -12 -16 -10 -8 -12 -13 -4 -9 8 4 5 -2 -7
-13 -12 -11 -19 -22 -16 -26 4 -3 1 -6 -5 -6 -7 0 -12 -7 -12 -15 0 -8 -4 -15
-10 -15 -5 0 -7 -7 -4 -15 4 -8 1 -15 -7 -15 -7 0 -9 -3 -6 -7 4 -3 -1 -12
-11 -20 -9 -8 -11 -11 -3 -8 9 5 8 -1 -4 -19 -17 -26 -33 -37 -19 -13 4 6 3 9
-1 5 -5 -5 -10 -20 -11 -35 -2 -15 -8 -29 -14 -31 -5 -2 -10 -10 -10 -18 0 -8
-5 -14 -12 -14 -6 0 -8 -3 -5 -6 4 -4 -3 -15 -14 -25 -11 -9 -20 -19 -20 -21
2 -15 -13 -47 -20 -42 -5 3 -9 2 -8 -3 4 -22 -2 -43 -11 -38 -5 3 -7 0 -4 -8
3 -8 -2 -20 -11 -27 -8 -7 -15 -18 -15 -24 0 -7 -9 -22 -20 -34 -11 -12 -20
-24 -20 -27 1 -21 -1 -25 -10 -20 -6 3 -7 -1 -4 -9 3 -9 1 -16 -6 -16 -6 0 -8
-4 -5 -10 3 -5 1 -10 -5 -10 -6 0 -8 -4 -5 -10 3 -5 2 -10 -4 -10 -6 0 -13
-11 -17 -25 -3 -14 -11 -22 -16 -19 -6 4 -2 -5 7 -20 10 -14 14 -26 10 -26 -3
0 1 -7 9 -16 9 -8 14 -20 11 -25 -4 -5 2 -9 11 -9 10 0 15 -3 11 -6 -3 -4 1
-13 9 -21 8 -8 11 -19 8 -25 -4 -7 -2 -8 4 -4 11 6 16 -6 13 -26 0 -5 4 -8 9
-8 6 0 10 -5 10 -11 0 -6 7 -17 15 -26 8 -8 13 -19 10 -24 -4 -5 -2 -9 3 -9
11 0 36 -51 33 -69 -1 -7 2 -10 8 -6 6 3 11 -1 11 -9 0 -9 3 -16 8 -16 11 0
32 -52 25 -63 -4 -6 -1 -7 6 -3 8 5 14 0 18 -13 3 -12 10 -21 15 -21 6 0 7 -7
4 -16 -3 -8 -2 -12 3 -9 9 5 21 -18 21 -38 -1 -4 6 -15 15 -23 8 -9 12 -20 9
-26 -4 -7 -2 -8 4 -4 6 3 16 -3 22 -14 6 -11 7 -20 3 -20 -4 0 -3 -4 4 -8 7
-4 20 -27 31 -50 10 -23 22 -39 25 -35 6 6 9 -4 6 -23 0 -4 3 -10 8 -13 19
-13 43 -62 37 -73 -4 -6 -3 -8 3 -5 13 8 26 -20 16 -35 -3 -7 -1 -8 5 -4 13 8
45 -47 34 -59 -4 -5 -2 -6 3 -2 6 3 17 -9 25 -26 7 -18 20 -38 27 -45 7 -8 11
-18 8 -23 -4 -5 -2 -9 4 -9 9 0 63 -89 64 -107 0 -4 7 -14 14 -21 7 -7 13 -19
13 -27 0 -7 3 -15 8 -17 10 -4 56 -77 73 -115 7 -18 17 -33 21 -33 5 0 8 -5 8
-11 0 -6 21 -45 47 -87 25 -42 46 -82 46 -89 0 -7 6 -14 14 -17 7 -3 13 -12
13 -21 0 -8 4 -15 9 -15 8 0 33 -51 33 -67 0 -4 6 -12 14 -16 8 -4 14 -13 14
-18 0 -6 11 -26 25 -46 13 -20 22 -40 19 -45 -3 -4 -1 -8 3 -8 5 0 20 -21 33
-47 14 -26 31 -54 38 -61 6 -7 12 -20 12 -28 0 -8 5 -14 11 -14 5 0 7 -4 4
-10 -3 -5 -1 -10 4 -10 6 0 11 -7 11 -15 0 -8 4 -15 8 -15 5 0 14 -16 22 -35
8 -19 17 -35 22 -35 4 0 8 -5 8 -11 0 -5 11 -26 25 -46 13 -20 22 -40 20 -44
-3 -4 2 -10 11 -13 8 -3 12 -10 9 -16 -3 -5 -2 -10 4 -10 6 0 13 -11 17 -25 3
-14 10 -25 16 -25 5 0 6 -4 3 -10 -3 -5 -1 -10 4 -10 6 0 11 -5 11 -11 0 -6 7
-17 15 -25 8 -8 11 -22 8 -31 -4 -9 -2 -14 3 -10 5 3 16 -9 24 -26 7 -18 17
-34 21 -37 4 -3 9 -12 11 -20 2 -8 8 -19 14 -25 11 -10 50 -76 82 -140 9 -16
19 -32 23 -35 4 -3 9 -12 11 -20 2 -8 11 -23 20 -34 10 -10 15 -23 12 -28 -3
-4 0 -8 6 -8 6 0 8 -4 5 -10 -3 -5 -1 -10 4 -10 6 0 11 -7 11 -15 0 -8 3 -15
8 -15 4 0 13 -9 20 -21 10 -15 10 -19 1 -14 -6 4 -1 -7 12 -26 13 -19 27 -36
32 -37 4 -2 5 -8 1 -13 -3 -5 0 -9 5 -9 6 0 11 -7 11 -15 0 -8 5 -15 12 -15 6
0 9 -3 5 -6 -3 -4 9 -30 28 -59 18 -29 31 -56 28 -59 -4 -3 -2 -6 4 -6 5 0 18
-18 28 -40 10 -22 21 -40 25 -40 5 0 11 -11 14 -24 3 -14 12 -31 19 -38 12
-13 26 -37 83 -143 14 -27 32 -53 38 -57 6 -4 7 -8 2 -8 -5 0 -2 -8 6 -17 9
-10 24 -34 33 -53 10 -19 23 -38 29 -42 6 -4 7 -8 3 -8 -5 0 1 -13 12 -29 11
-15 18 -31 14 -35 -3 -3 -2 -6 4 -6 6 0 16 -13 23 -30 7 -16 17 -30 22 -30 5
0 7 -4 3 -9 -3 -6 1 -13 9 -18 8 -4 15 -11 15 -16 1 -10 32 -71 40 -77 3 -3
19 -30 35 -60 16 -30 33 -58 38 -61 5 -3 10 -13 12 -22 1 -8 19 -41 39 -72 20
-32 37 -64 37 -71 0 -8 4 -14 8 -14 5 0 17 -18 27 -40 10 -22 22 -40 27 -40 5
0 6 -5 3 -10 -3 -6 -1 -10 4 -10 6 0 11 -6 11 -14 0 -8 7 -22 16 -30 8 -9 13
-16 9 -16 -3 0 3 -13 14 -29 12 -16 21 -34 21 -40 0 -6 5 -11 10 -11 6 0 10
-7 10 -15 0 -9 9 -25 20 -37 10 -12 17 -25 14 -30 -3 -4 2 -8 11 -8 9 0 14 -4
10 -9 -3 -5 -1 -12 5 -16 6 -4 8 -11 5 -16 -4 -5 -2 -9 3 -9 5 0 17 -18 27
-40 10 -22 21 -40 24 -40 4 0 15 -17 26 -37 10 -21 33 -60 49 -86 23 -36 30
-58 27 -85 -1 -20 -5 -39 -7 -41 -2 -2 -437 -6 -966 -7 -530 -2 -1730 -5
-2668 -8 -938 -3 -1707 -6 -1710 -6 -19 -5 -460 -1 -468 4 -15 9 -10 78 9 106
26 41 63 114 61 123 -1 4 2 7 8 7 5 0 16 15 25 33 15 34 36 69 46 77 8 7 22
44 21 53 -1 4 3 7 8 7 6 0 10 8 10 19 0 10 7 24 15 31 8 7 12 16 9 21 -3 5 0
9 5 9 6 0 11 7 11 15 0 9 7 18 15 21 8 4 15 15 15 25 0 10 5 19 10 19 6 0 10
6 10 14 0 7 9 25 21 40 11 14 18 26 14 26 -3 0 3 13 14 29 12 16 21 34 21 40
0 6 4 11 8 11 5 0 19 23 32 50 13 28 27 50 31 50 6 0 15 22 17 44 0 5 4 12 9
15 10 7 42 60 85 141 16 30 33 57 36 60 4 3 16 24 26 48 11 23 23 42 29 42 5
0 7 6 4 13 -3 8 3 20 13 27 11 8 17 17 15 21 -3 4 2 12 10 19 8 7 15 21 15 30
0 10 4 20 8 22 15 5 81 135 74 143 -4 5 -2 5 5 2 6 -4 15 5 22 23 5 17 15 30
21 30 6 0 8 5 5 10 -3 6 -1 10 4 10 6 0 10 3 9 8 -3 8 58 118 81 146 13 16 13
18 1 12 -12 -6 -11 -5 1 6 9 7 24 31 35 53 10 22 24 46 31 53 7 7 13 18 13 23
0 6 7 17 15 26 8 8 13 19 10 24 -4 5 -1 9 5 9 7 0 9 7 6 16 -3 8 -2 13 3 10 4
-3 34 42 65 99 31 57 61 107 66 110 6 4 8 11 5 16 -4 5 -1 9 5 9 6 0 8 5 5 10
-3 6 -2 10 3 10 5 0 12 8 16 18 3 9 17 35 31 57 14 22 32 54 40 72 8 17 20 35
26 38 5 4 8 14 5 22 -3 8 -2 12 2 9 11 -7 45 52 37 64 -3 6 -2 10 2 10 13 0
121 181 144 243 6 15 15 27 20 27 5 0 9 6 9 14 0 8 6 21 13 28 6 7 21 31 32
53 11 22 23 42 26 45 3 3 12 20 20 38 8 17 18 32 23 32 4 0 5 7 2 16 -3 8 -2
13 3 10 5 -3 14 6 20 22 13 34 43 85 56 94 6 4 6 8 1 8 -5 0 -1 9 9 20 15 17
30 42 83 145 8 17 18 32 21 35 4 3 12 16 18 30 7 14 28 52 47 85 20 33 45 79
58 103 12 23 25 42 29 42 4 0 10 13 14 29 3 16 13 35 21 42 8 6 14 18 14 25 0
8 5 14 11 14 5 0 8 4 4 9 -3 6 1 13 9 18 8 4 15 13 16 18 1 6 12 28 23 50 12
22 20 43 19 48 -1 4 2 7 8 7 5 0 16 15 24 33 15 33 66 124 92 165 8 13 25 42
38 65 45 83 79 142 96 167 10 14 21 35 24 48 4 12 12 22 18 22 6 0 9 3 5 6 -3
3 10 30 29 60 19 30 32 54 28 54 -4 0 0 8 8 18 9 9 29 42 46 72 16 30 53 96
81 145 29 50 53 94 54 100 1 5 9 15 17 22 8 7 11 13 5 13 -7 0 -7 3 0 8 12 9
38 52 68 112 12 25 28 49 35 53 7 5 10 12 8 16 -3 4 3 17 12 27 10 10 26 37
36 59 11 22 36 68 57 102 21 33 35 64 32 67 -4 3 -2 6 4 6 9 0 30 35 31 54 0
5 4 12 9 15 4 3 15 15 23 25 13 18 13 19 0 12 -11 -6 -11 -4 1 6 16 13 57 86
57 102 0 5 7 13 16 18 9 5 13 15 9 26 -3 9 -2 14 2 9 5 -4 17 11 27 33 10 22
23 40 29 40 6 0 9 7 5 15 -3 8 -1 15 3 15 5 0 14 14 20 30 5 17 15 30 21 30 6
0 8 5 5 10 -3 6 -1 10 6 10 7 0 10 3 6 6 -6 6 39 85 55 95 5 3 9 8 8 10 -5 10
30 79 40 79 6 0 8 5 5 10 -3 6 -1 10 4 10 6 0 10 4 8 8 -1 5 15 37 36 72 20
34 37 67 37 71 0 5 5 9 11 9 5 0 8 4 5 8 -3 5 2 18 12 28 9 11 18 26 20 34 2
8 10 21 19 28 9 6 13 12 9 12 -4 0 2 17 14 38 13 20 34 57 48 82 14 25 34 57
44 73 l19 27 -23 0 c-369 5 -5819 7 -5822 2z"/>
<path d="M8425 12308 c-4 -13 -23 -45 -42 -71 -19 -27 -38 -60 -44 -74 -5 -14
-18 -38 -29 -53 -11 -15 -17 -30 -13 -34 3 -3 1 -6 -5 -6 -7 0 -12 -7 -12 -15
0 -8 -4 -15 -10 -15 -5 0 -10 -6 -10 -13 0 -7 -11 -29 -25 -50 -14 -20 -23
-37 -20 -37 4 0 -1 -7 -9 -16 -9 -8 -14 -20 -11 -25 4 -5 2 -9 -4 -9 -5 0 -16
-12 -24 -27 -31 -61 -53 -98 -64 -111 -7 -7 -13 -17 -13 -22 0 -5 -20 -43 -44
-84 -24 -41 -42 -77 -38 -80 3 -3 1 -6 -4 -6 -6 0 -21 -19 -34 -42 -12 -24
-30 -51 -38 -60 -8 -10 -12 -18 -8 -18 4 0 -2 -13 -14 -30 -12 -16 -18 -30
-13 -30 4 0 3 -4 -4 -8 -11 -7 -163 -267 -166 -286 -1 -5 -8 -16 -16 -25 -24
-29 -109 -180 -103 -186 3 -3 0 -5 -7 -5 -7 0 -9 -4 -6 -10 3 -5 1 -10 -5 -10
-6 0 -16 -13 -21 -30 -6 -16 -15 -30 -20 -30 -5 0 -9 -9 -9 -20 0 -11 -4 -20
-9 -20 -5 0 -14 -12 -20 -27 -6 -16 -34 -66 -62 -113 -28 -47 -60 -103 -72
-125 -12 -22 -24 -42 -27 -45 -3 -3 -33 -52 -65 -110 -33 -58 -65 -114 -72
-125 -7 -11 -15 -27 -19 -35 -4 -8 -32 -54 -61 -102 -29 -47 -53 -89 -53 -92
0 -3 -19 -36 -42 -73 -22 -38 -41 -74 -41 -80 0 -7 -3 -11 -6 -8 -3 3 -12 -7
-21 -24 -8 -16 -27 -52 -42 -79 -14 -28 -24 -53 -22 -56 2 -3 1 -4 -2 -2 -9 7
-33 -18 -27 -28 3 -4 -1 -12 -8 -17 -8 -4 -14 -12 -14 -16 -1 -10 -36 -76 -44
-83 -3 -3 -13 -19 -22 -35 -9 -17 -49 -86 -89 -155 -40 -69 -84 -145 -98 -170
-14 -25 -31 -51 -39 -58 -7 -8 -11 -18 -8 -23 4 -5 2 -9 -3 -9 -6 0 -17 -18
-26 -40 -9 -22 -21 -40 -27 -40 -5 0 -8 -4 -4 -9 3 -5 0 -13 -5 -16 -10 -6
-31 -51 -31 -65 0 -3 -7 -9 -15 -13 -8 -5 -12 -12 -9 -18 4 -5 2 -9 -3 -9 -11
0 -38 -60 -34 -73 1 -5 -1 -6 -5 -4 -5 3 -22 -20 -40 -49 -17 -30 -26 -52 -20
-48 7 3 4 -1 -5 -9 -10 -8 -18 -19 -18 -26 0 -6 -4 -11 -9 -11 -5 0 -12 -14
-16 -30 -4 -18 -11 -27 -17 -24 -6 4 -8 2 -5 -3 4 -6 -3 -22 -14 -37 -11 -14
-17 -31 -13 -37 4 -7 3 -9 -3 -6 -6 4 -14 -1 -18 -11 -3 -9 -5 -18 -3 -19 2
-1 -8 -13 -21 -27 -14 -14 -20 -26 -15 -26 5 0 4 -4 -2 -8 -13 -8 -45 -68 -39
-73 7 -8 1653 3 1663 11 5 3 29 41 55 85 25 44 51 85 57 92 5 7 10 16 10 21 0
4 14 30 30 56 17 26 32 53 33 59 1 6 8 18 15 25 7 8 9 18 6 24 -4 7 -2 8 4 4
7 -4 12 -3 12 1 0 5 25 52 56 104 31 51 56 98 57 104 1 5 5 12 8 15 3 3 30 48
61 100 30 52 75 129 99 170 24 41 42 78 41 83 -1 4 3 7 9 7 5 0 7 5 4 10 -3 6
-2 10 3 10 8 0 53 72 53 87 0 5 8 16 16 26 9 9 13 17 9 17 -4 0 2 10 14 22 11
12 20 27 20 34 0 6 7 17 15 24 8 7 12 16 9 21 -3 5 2 12 11 15 9 4 14 13 11
21 -3 8 -1 11 4 8 6 -3 10 0 10 7 0 8 15 38 34 68 19 30 32 58 30 62 -3 5 -1
8 5 8 9 0 54 73 56 90 0 3 10 19 22 36 12 17 20 34 16 38 -3 3 -2 6 4 6 10 0
38 49 35 63 -1 4 2 7 6 7 5 0 17 18 28 40 10 22 23 40 27 40 5 0 6 4 3 8 -3 5
4 18 14 30 11 12 20 25 20 30 0 5 10 22 23 38 12 16 21 31 20 34 -2 3 9 23 23
45 13 22 24 44 24 49 -1 5 5 13 14 18 9 5 14 13 11 19 -4 5 -1 9 5 9 6 0 8 5
5 10 -3 6 -2 10 3 10 5 0 17 18 27 40 10 22 24 45 31 51 8 6 12 15 9 19 -3 4
2 13 10 20 8 7 15 19 15 26 0 8 5 14 10 14 6 0 10 5 10 10 0 6 11 28 25 50 14
22 22 40 18 40 -4 0 3 9 15 20 12 12 22 26 22 33 0 7 6 19 13 26 6 6 12 15 12
19 0 11 77 136 88 144 6 3 -2 26 -19 55 -15 26 -29 54 -30 60 -1 7 -10 20 -19
30 -10 9 -22 29 -27 45 -6 15 -14 28 -20 28 -5 0 -6 5 -3 10 3 6 1 10 -5 10
-6 0 -9 4 -6 9 3 5 -1 14 -9 21 -8 7 -13 16 -10 20 3 4 -2 10 -10 14 -8 3 -15
15 -15 26 0 12 -4 18 -10 15 -5 -3 -10 0 -10 8 0 14 -58 119 -80 144 -5 7 -10
19 -10 28 0 8 -4 15 -8 15 -5 0 -17 18 -27 40 -10 22 -22 40 -27 40 -5 0 -7 4
-3 9 3 5 -2 17 -11 25 -8 9 -12 16 -8 16 4 0 -1 7 -12 16 -10 8 -13 12 -6 9 8
-4 -2 16 -22 44 -20 28 -37 54 -37 58 -1 5 -20 40 -42 78 -23 39 -42 72 -42
75 0 3 -10 19 -22 36 -12 17 -20 33 -17 36 2 3 -2 11 -11 18 -8 7 -15 19 -15
26 0 8 -4 14 -10 14 -5 0 -10 4 -10 9 0 5 -25 52 -55 105 -30 52 -55 100 -55
106 0 6 -4 8 -10 5 -5 -3 -11 -1 -11 4 -3 22 -5 27 -34 78 -17 29 -34 53 -38
53 -5 0 -6 4 -2 9 3 5 1 12 -4 15 -5 4 -13 -4 -16 -16z"/>
<path d="M14198 7958 c-10 -10 -18 -15 -18 -10 -1 4 -8 -9 -17 -28 -9 -19 -15
-38 -15 -42 1 -5 -2 -8 -8 -8 -5 0 -7 -8 -3 -17 3 -10 2 -15 -2 -11 -8 8 -42
-31 -38 -44 3 -7 -33 -67 -55 -93 -4 -5 -9 -12 -9 -15 -7 -24 -19 -47 -32 -58
-13 -11 -13 -12 -1 -7 8 4 6 -1 -4 -9 -11 -9 -16 -16 -11 -16 4 0 1 -8 -7 -17
-22 -27 -73 -117 -70 -125 1 -5 -3 -8 -9 -8 -5 0 -7 -4 -4 -10 3 -5 1 -10 -4
-10 -6 0 -11 -6 -11 -14 0 -8 -3 -16 -7 -18 -15 -6 -53 -85 -45 -93 4 -5 2 -5
-4 -2 -6 3 -17 -6 -25 -21 -7 -15 -22 -39 -32 -54 -10 -16 -15 -28 -12 -28 4
0 0 -7 -9 -15 -8 -9 -12 -23 -9 -32 4 -10 2 -14 -4 -10 -10 7 -60 -80 -55 -96
1 -5 -2 -6 -8 -2 -5 3 -10 -1 -10 -9 0 -9 -5 -16 -11 -16 -5 0 -8 -4 -4 -9 3
-5 -1 -16 -9 -24 -8 -8 -12 -17 -9 -21 4 -3 1 -6 -6 -6 -8 0 -11 -6 -7 -17 4
-10 4 -14 0 -10 -9 9 -45 -43 -38 -55 3 -4 0 -8 -6 -8 -6 0 -9 -4 -6 -9 3 -5
-1 -12 -10 -15 -9 -4 -14 -13 -10 -22 3 -8 2 -13 -3 -10 -10 6 -35 -43 -32
-63 1 -7 -2 -10 -8 -6 -10 5 -13 -1 -10 -21 0 -3 -8 -13 -19 -22 -10 -9 -18
-25 -16 -35 1 -9 -2 -15 -6 -12 -11 7 -32 -30 -23 -39 3 -3 1 -6 -5 -6 -6 0
-9 -7 -5 -17 4 -11 3 -14 -5 -9 -7 4 -12 4 -12 -1 0 -4 -10 -24 -22 -43 -12
-19 -23 -40 -24 -45 -1 -7 131 -10 400 -8 358 2 2562 10 3749 14 l448 2 -23
25 c-13 14 -17 22 -10 18 6 -4 3 9 -9 28 -12 20 -25 33 -30 30 -5 -3 -6 1 -3
9 3 8 -1 21 -8 28 -8 8 -20 30 -28 49 -7 19 -23 43 -34 53 -12 10 -15 15 -7
11 9 -5 8 2 -5 19 -10 15 -22 27 -26 27 -4 0 -5 7 -2 15 4 8 1 15 -5 15 -6 0
-18 18 -27 40 -9 22 -20 40 -26 40 -5 0 -6 5 -3 10 3 6 1 10 -4 10 -6 0 -11 7
-11 15 0 8 -8 23 -18 33 -10 10 -17 23 -15 28 2 5 -8 21 -22 37 -14 15 -23 27
-20 27 3 0 -1 14 -10 30 -9 17 -20 30 -25 30 -6 0 -9 3 -9 8 4 21 -2 32 -13
26 -7 -4 -10 -4 -6 1 8 8 -26 80 -48 103 -8 7 -14 19 -14 26 0 8 -7 19 -15 26
-8 7 -13 16 -10 20 3 4 -2 13 -10 20 -8 7 -12 16 -9 21 3 5 1 9 -4 9 -5 0 -15
12 -22 28 -8 15 -23 38 -35 51 -12 15 -14 22 -5 17 8 -4 6 1 -6 11 -11 10 -20
20 -21 23 -2 21 -16 49 -22 46 -4 -3 -8 0 -8 7 0 7 -12 31 -26 54 -15 24 -27
47 -27 53 0 5 -4 10 -10 10 -5 0 -10 9 -10 19 0 11 -5 23 -12 27 -7 5 -8 3 -3
-6 5 -8 4 -11 -3 -6 -6 4 -9 12 -6 19 2 7 -7 28 -21 47 -14 19 -25 40 -25 48
0 7 -5 10 -12 6 -8 -5 -9 -2 -5 9 3 10 3 17 -1 17 -4 0 -13 12 -20 28 -21 47
-39 72 -45 65 -4 -3 -7 -2 -7 4 0 6 -479 10 -1437 9 -1363 0 -1438 -1 -1455
-18z"/>
</g>
</svg>
